<?xml version="1.0" encoding="UTF-8" standalone="no"?>
<!-- Created with Inkscape (http://www.inkscape.org/) -->

<svg
   xmlns:dc="http://purl.org/dc/elements/1.1/"
   xmlns:cc="http://creativecommons.org/ns#"
   xmlns:rdf="http://www.w3.org/1999/02/22-rdf-syntax-ns#"
   xmlns:svg="http://www.w3.org/2000/svg"
   xmlns="http://www.w3.org/2000/svg"
   xmlns:sodipodi="http://sodipodi.sourceforge.net/DTD/sodipodi-0.dtd"
   xmlns:inkscape="http://www.inkscape.org/namespaces/inkscape"
   width="744.09448819"
   height="1052.3622047"
   id="svg2"
   version="1.1"
   inkscape:version="0.48.5 r10040"
   sodipodi:docname="New document 1">
  <defs
     id="defs4">
    <inkscape:perspective
       sodipodi:type="inkscape:persp3d"
       inkscape:vp_x="-246.0396 : 630.45399 : 1"
       inkscape:vp_y="0 : 1227.3069 : 0"
       inkscape:vp_z="1072.067 : 630.45399 : 1"
       inkscape:persp3d-origin="413.01369 : 415.19208 : 1"
       id="perspective2985" />
  </defs>
  <sodipodi:namedview
     id="base"
     pagecolor="#ffffff"
     bordercolor="#666666"
     borderopacity="1.0"
     inkscape:pageopacity="0.0"
     inkscape:pageshadow="2"
     inkscape:zoom="0.35"
     inkscape:cx="375"
     inkscape:cy="520"
     inkscape:document-units="px"
     inkscape:current-layer="layer1"
     showgrid="false"
     inkscape:window-width="1676"
     inkscape:window-height="1011"
     inkscape:window-x="0"
     inkscape:window-y="18"
     inkscape:window-maximized="0" />
  <metadata
     id="metadata7">
    <rdf:RDF>
      <cc:Work
         rdf:about="">
        <dc:format>image/svg+xml</dc:format>
        <dc:type
           rdf:resource="http://purl.org/dc/dcmitype/StillImage" />
        <dc:title></dc:title>
      </cc:Work>
    </rdf:RDF>
  </metadata>
  <g
     inkscape:label="Layer 1"
     inkscape:groupmode="layer"
     id="layer1">
    <path
       style="fill:#d40000"
       id="path3003"
       d="m 202.14679,225.57026 c -10.31648,-4.85325 -21.29748,-7.71399 -32.13986,-11.04838 -6.83236,-2.30132 -13.90144,-3.43882 -21.07061,-3.8811 -2.4783,0.22682 -4.40855,0.92355 -6.50242,2.14573 -0.60683,0.3542 -2.47318,1.33452 -1.86352,0.98522 11.48412,-6.5796 45.7882,-26.56713 34.48784,-19.6767 -12.64228,7.70867 -25.67677,14.75491 -38.51516,22.13237 115.47482,-66.04348 -91.35378,52.09812 21.14906,-12.36166 -4.79427,3.35661 -9.52016,6.82348 -14.0866,10.48479 -14.23807,10.24371 -0.92445,0.7849 -40.94622,23.44275 -2.814041,1.59314 -5.654853,3.15828 -8.608377,4.48336 65.256307,-34.78297 37.058187,-23.80043 25.336497,-13.15497 -3.27855,2.54943 -5.60224,6.09649 -7.4662,9.76083 -1.97345,4.45075 -4.03731,8.91324 -5.58957,13.53517 -1.36964,4.87553 -3.79944,9.33903 -5.48755,14.09272 -1.786989,4.45533 -3.36974,8.85943 -4.137162,13.61088 -0.67064,5.42586 -0.666958,10.90472 -0.697901,16.36301 -0.458547,5.73116 0.551774,11.15037 2.244475,16.58433 1.637461,5.82337 3.937028,11.43736 6.518218,16.89986 2.19286,5.5362 5.48575,10.50327 8.09783,15.82197 2.2641,3.95208 4.55946,7.92902 6.39726,12.10218 2.22199,4.14257 4.61946,8.20464 7.49324,11.92955 3.0583,4.35463 6.06099,8.72928 9.10862,13.09224 3.25363,5.67788 7.19071,10.91309 11.0461,16.18809 4.72776,7.29122 9.96581,14.12547 16.22629,20.14981 5.72634,5.4905 11.78837,10.61007 17.61796,15.98106 4.85792,4.59648 10.47667,7.94607 16.54547,10.65731 5.67911,2.09645 11.34603,4.21679 17.1611,5.91161 7.13729,1.83639 14.54208,2.12245 21.87181,2.35073 6.81419,0.15525 13.63038,0.0771 20.44555,0.0841 6.83292,0.32539 13.47899,-0.14899 20.05636,-2.04475 5.72742,-1.48519 10.94994,-4.3495 16.1807,-7.0087 13.36658,-6.20318 34.49281,-19.26528 -28.30127,16.64833 -1.40351,0.8027 2.67132,-1.83256 3.90272,-2.88035 3.96482,-3.72253 7.08581,-8.20513 10.64002,-12.29743 3.2455,-4.00602 6.13489,-8.28035 9.18407,-12.43547 2.92521,-4.28171 6.16982,-8.30919 9.44679,-12.31937 3.20466,-3.33131 6.0019,-7.05396 8.57907,-10.88404 2.52846,-4.09474 5.04663,-8.14888 7.08468,-12.51523 3.03596,-5.01872 4.8664,-10.5018 6.52518,-16.0827 2.27621,-6.195 3.08346,-12.69174 3.5914,-19.22652 0.37898,-6.77258 0.35198,-13.55883 0.34086,-20.33937 -0.0588,-7.477 -2.65594,-14.39923 -5.28558,-21.27809 -3.81825,-7.82053 -7.70014,-15.64048 -11.98012,-23.22718 -4.8609,-8.42008 -10.67473,-16.14434 -16.97729,-23.52181 -6.83335,-7.00158 -13.44614,-14.1624 -20.83467,-20.58559 -6.19655,-4.62601 -11.15093,-10.53073 -16.63893,-15.89257 -4.36123,-4.46929 -8.97524,-8.6679 -13.54621,-12.92681 -5.06443,-4.97802 -10.14898,-9.88581 -16.07364,-13.83304 -5.43853,-4.14662 -12.05166,-5.57333 -18.68996,-6.39669 -6.07861,-0.0673 -11.94914,-1.61054 -17.94777,-2.41918 -2.62807,-0.0975 -5.43888,-1.06161 -8.01988,-0.0569 -0.64479,0.25101 -2.33167,1.48821 -1.72766,1.15067 34.55054,-19.30831 45.69723,-27.85652 33.59208,-18.68022 -1.74667,2.23404 -1.9001,4.68291 -1.66975,7.37615 0,0 -37.63057,19.79568 -37.63057,19.79568 l 0,0 c -0.58325,-3.46841 -0.89333,-6.73516 0.30569,-10.14443 7.23407,-18.98965 31.47805,-26.96899 49.82589,-23.86327 5.96469,0.96209 11.90306,1.97267 17.92909,2.47949 7.08725,1.34312 13.93786,3.53806 19.73333,8.00812 5.88878,4.29002 11.14878,9.27007 16.40044,14.30699 4.65373,4.25422 9.24044,8.55743 13.62566,13.08734 5.28343,5.4431 10.3724,11.04662 16.38119,15.73881 7.40354,6.66744 14.08222,14.04479 21.04678,21.16138 6.41948,7.62013 12.46643,15.51286 17.44299,24.17229 4.38886,7.75555 8.40114,15.72719 12.33335,23.71638 2.90585,7.29774 5.66185,14.66859 6.1701,22.58973 -0.009,6.87163 -0.0263,13.74532 -0.29703,20.6127 -0.32047,6.792 -0.84268,13.64574 -3.0674,20.12403 -1.90391,5.63794 -2.97983,11.57083 -6.09922,16.75357 -2.51318,4.07316 -3.81439,8.88853 -7.04667,12.56847 -2.02972,4.39627 -5.26477,8.00818 -8.13177,11.88239 -3.83187,3.36716 -6.8139,7.7443 -9.71455,11.90655 -3.21182,4.06022 -6.02448,8.36075 -9.08573,12.50923 -3.27795,4.41502 -7.12984,8.40424 -10.46446,12.78677 -12.63962,14.03409 -31.29455,20.64713 -48.00941,28.99409 -5.27179,2.68791 -10.8928,4.7969 -16.66868,6.09465 -6.85044,1.26151 -13.70253,1.51572 -20.6634,1.29046 -6.83032,0.0282 -13.66311,4e-5 -20.48896,-0.27452 -7.59622,-0.38437 -15.24904,-0.94572 -22.56275,-3.19385 -5.92787,-1.90735 -11.83952,-3.87681 -17.53782,-6.40707 -6.2473,-3.15151 -12.06935,-6.86741 -17.09912,-11.79363 -5.90132,-5.36538 -11.98808,-10.52887 -17.704,-16.10099 -6.28945,-6.29122 -11.56451,-13.38368 -16.56972,-20.72821 -3.92271,-5.27126 -7.99141,-10.45881 -11.275056,-16.16627 -3.042067,-4.30617 -5.963797,-8.68381 -9.031296,-12.97052 -2.998365,-4.05247 -5.740929,-8.29283 -8.064492,-12.77106 -1.748475,-4.1466 -4.096358,-8.03538 -6.250644,-11.97911 -2.538278,-5.36006 -5.840318,-10.34027 -8.036693,-15.87674 -2.708847,-5.6131 -5.120796,-11.40518 -6.828943,-17.40494 -1.85444,-5.7953 -3.406266,-11.57075 -2.878491,-17.73262 0.0056,-5.6105 -0.01764,-11.23028 0.419117,-16.82771 0.512797,-4.94589 1.308771,-9.86593 3.83163,-14.24369 1.282514,-4.91977 3.584391,-9.35062 5.509232,-14.01029 1.19028,-5.00888 3.569926,-9.43968 5.226122,-14.28573 2.033038,-3.95565 3.78136,-7.96614 6.749088,-11.34053 5.64143,-4.21562 -2.413331,1.97354 3.183837,-2.92911 12.174472,-10.66381 39.582509,-16.32749 44.114129,-26.32319 2.15149,-1.15161 4.31975,-2.2961 6.51355,-3.36533 0.7202,-0.35102 2.87712,-1.40416 2.18676,-0.99759 -31.58558,18.60185 -46.075895,25.75615 -31.76378,18.62866 4.80482,-3.37991 9.16262,-7.35465 14.07509,-10.61284 12.88641,-7.60149 25.74915,-15.24325 38.65923,-22.80446 43.37237,-25.40245 -111.226805,65.37909 12.71301,-7.05871 -11.4116,6.59442 -45.91034,25.89826 -34.23481,19.78327 13.47649,-7.05823 29.99975,-24.11701 48.06511,-23.33144 7.28214,0.79343 14.40344,2.39328 21.33494,4.79318 11.01872,3.38735 21.95506,6.95004 32.6317,11.32762 0,0 -35.26896,23.43597 -35.26896,23.43597 z"
       inkscape:connector-curvature="0" />
    <path
       style="fill:#d40000"
       id="path3005"
       d="m 233.19357,325.46226 c -0.66332,11.57698 0.26219,23.10567 2.4401,34.47312 2.59169,10.74289 6.94069,20.95478 11.10555,31.16066 3.20773,7.30775 6.95112,14.35488 10.4716,21.51081 3.06361,5.72893 5.70015,11.67613 9.04138,17.25221 4.42567,6.18695 8.91738,12.32276 13.08796,18.68591 5.10929,7.45976 11.65799,13.72982 17.51139,20.56965 4.28752,5.11322 8.0649,10.62007 12.0936,15.9362 3.39363,4.65207 7.21918,8.9402 10.85613,13.39063 3.52736,3.30733 6.89156,6.75542 10.0113,10.45111 3.23036,4.80982 6.57379,9.52912 9.87161,14.28787 2.77835,3.65074 4.08637,8.45303 7.29554,11.73488 1.43846,0.73776 1.58323,-0.39999 2.5404,-1.34555 0,0 -33.86952,25.92962 -33.86952,25.92962 l 0,0 c -2.11373,-0.25634 -3.57473,-0.99273 -5.07796,-2.58093 -3.05179,-3.70087 -4.80886,-8.23689 -7.46741,-12.22545 -3.19405,-4.65107 -6.41722,-9.2759 -9.67457,-13.88436 -3.20109,-3.6649 -6.6776,-7.05031 -10.07185,-10.52988 -3.67724,-4.48115 -7.339,-8.96446 -10.85779,-13.5727 -3.98304,-5.24328 -7.61292,-10.7544 -11.83093,-15.81469 -5.92769,-6.99173 -12.51086,-13.44929 -17.733,-21.02624 -4.27994,-6.36884 -8.90745,-12.4912 -13.32495,-18.76453 -3.42619,-5.67722 -6.12575,-11.72968 -9.21274,-17.59229 -3.48097,-7.28144 -7.21912,-14.43882 -10.42172,-21.85351 -4.25467,-10.46766 -8.43685,-21.027 -11.2873,-31.97459 -2.36335,-11.51755 -3.39167,-23.18735 -3.31253,-34.94988 0,0 37.81571,-19.26807 37.81571,-19.26807 z"
       inkscape:connector-curvature="0" />
    <path
       style="fill:#d40000"
       id="path3007"
       d="m 347.47929,156.89083 c -0.29461,9.89687 -0.41464,19.78588 0.58406,29.64296 0.41072,7.26848 2.37354,14.2727 3.60108,21.40935 1.68944,7.1355 2.93445,14.34947 3.71234,21.63818 0.24469,6.0797 0.7948,12.06052 1.82074,18.05516 0.88245,5.39246 3.54928,10.06635 6.01928,14.83956 2.95239,5.14126 5.65838,10.41065 8.69723,15.505 3.63263,7.20136 7.19729,14.43528 10.601,21.7476 2.59697,5.95182 4.72046,12.0786 7.29166,18.03623 1.62604,4.21427 3.61983,8.28119 5.69904,12.28967 1.47093,3.91648 3.94631,7.26743 6.34894,10.64669 3.06707,4.85951 5.94005,9.83817 8.19313,15.12909 2.40919,4.90805 5.0629,9.68836 7.49916,14.58223 2.85244,5.46776 5.23446,11.13554 7.99776,16.65135 3.03192,5.6958 6.09617,11.37834 8.95685,17.16298 2.62249,5.25772 5.27748,10.53529 7.51279,15.9733 1.5624,4.59356 3.38319,9.09837 5.10776,13.63713 2.46738,4.44796 4.36498,9.17114 6.56694,13.74919 2.18132,5.08418 4.06331,10.31484 5.8433,15.55782 0.2859,0.62223 0.51621,1.27314 0.85771,1.86668 1.80166,3.13136 0.7644,-1.55023 0.56207,-1.44378 -34.3582,18.07655 -41.62684,33.7146 -34.98238,19.94712 1.03487,-4.88155 0.95335,-9.87448 0.22991,-14.78344 -1.09232,-5.79073 -1.66907,-11.64717 -1.99684,-17.52473 -0.26933,-7.00163 -0.21159,-14.01249 -0.18552,-21.01811 0.005,-7.18651 -0.0263,-14.37298 -0.043,-21.55946 0.0151,-6.56101 0.0193,-13.12198 0.007,-19.68305 -0.099,-7.0383 1.30869,-13.98038 2.01599,-20.96389 0.35639,-7.93243 1.17692,-15.80165 2.10291,-23.68445 1.43741,-8.78701 4.02301,-17.33984 6.11538,-25.99249 1.87131,-7.93938 3.31456,-15.97065 4.92242,-23.9684 1.17072,-6.90461 2.59887,-13.77349 4.11178,-20.61155 1.72122,-6.39903 2.83449,-12.92562 4.65228,-19.29984 2.05679,-7.09682 4.67337,-14.00466 7.59784,-20.78393 3.07511,-5.88234 6.0807,-11.85341 9.86346,-17.31904 3.66507,-5.23145 7.77697,-10.12033 11.5815,-15.24575 4.35643,-5.64547 8.80903,-11.22226 13.29945,-16.76242 3.80806,-4.28251 7.2743,-8.85369 10.66229,-13.47074 1.47748,-2.16899 2.92121,-4.32469 4.54682,-6.38518 0,0 39.25716,-16.24755 39.25716,-16.24755 l 0,0 c -2.11668,1.61128 -3.78632,3.26907 -4.84061,5.79588 -3.45486,4.69875 -6.84326,9.40055 -10.59961,13.87079 -4.93009,5.05778 -8.74934,11.12956 -13.45216,16.40952 -3.77415,5.15367 -7.84194,10.05313 -11.50388,15.28884 -4.22616,5.00822 -6.97789,10.87662 -10.30994,16.49159 -3.18699,6.51607 -5.81041,13.33944 -7.80844,20.3109 -2.2059,6.21697 -3.03635,12.69836 -4.72559,19.05171 -1.91887,6.66334 -2.94877,13.63832 -4.32586,20.42402 -1.42561,8.107 -3.30883,16.13558 -4.87906,24.21316 -2.15539,8.50085 -4.34221,16.99891 -6.35975,25.51698 -0.90732,7.84498 -1.82083,15.65231 -2.04773,23.55319 -0.60135,6.87691 -1.90509,13.68701 -2.12508,20.5735 -0.0128,6.5611 -0.009,13.12212 -0.002,19.68315 -0.0263,7.20474 -0.0747,14.40942 -0.0747,21.61422 0.0319,6.9186 0.0227,13.83887 0.24692,20.75476 0.24366,5.73514 0.67562,11.46585 1.77691,17.11015 0.93533,5.37033 1.23328,10.67709 0.65574,16.12276 -1.12837,18.62792 -35.0186,38.08769 -42.01922,18.62959 -1.62691,-5.09451 -3.48389,-10.13909 -5.51287,-15.07822 -2.32057,-4.66498 -4.26879,-9.50386 -6.79218,-14.06888 -1.7192,-4.51359 -3.62663,-8.96696 -5.07513,-13.57064 -2.09224,-5.3808 -4.6912,-10.5845 -7.2728,-15.74108 -2.82214,-5.79209 -5.91297,-11.45145 -8.94298,-17.13598 -2.75542,-5.52455 -5.20386,-11.16159 -8.03968,-16.63938 -2.46955,-4.98093 -5.25399,-9.79697 -7.62616,-14.82824 -2.05758,-5.02824 -4.85749,-9.68227 -7.80061,-14.23914 -2.55747,-3.51513 -5.12636,-7.07923 -6.68165,-11.17266 -2.11983,-4.10903 -4.17255,-8.27582 -5.78562,-12.61021 -2.49146,-5.95891 -4.57504,-12.06028 -7.06295,-18.02545 -3.26199,-7.20584 -6.81017,-14.26905 -10.44867,-21.29157 -3.12525,-5.1471 -5.91355,-10.479 -8.91284,-15.69657 -2.66789,-5.15997 -5.50123,-10.2197 -6.62415,-16.00232 -1.03245,-6.10582 -1.95418,-12.14058 -1.90072,-18.35948 -0.61964,-7.21425 -1.6856,-14.37656 -3.57291,-21.37969 -1.17453,-7.25783 -3.24661,-14.35168 -3.55856,-21.74021 -1.00714,-9.95334 -0.91633,-19.89052 -1.043,-29.88641 0,0 37.81572,-19.26807 37.81572,-19.26807 z"
       inkscape:connector-curvature="0" />
    <path
       style="fill:#d40000"
       id="path3009"
       d="m 458.90786,428.3194 c -0.22138,8.72193 -0.12675,17.44842 -0.0796,26.17206 0.039,6.40009 0.0574,12.80027 0.0667,19.20047 0.006,5.71063 0.006,11.42127 0.005,17.13191 -3e-4,5.70334 -5.6e-4,11.40668 -7e-4,17.11001 -1.1e-4,5.71366 -1.2e-4,11.42731 -1.3e-4,17.14096 0.22393,5.47705 -0.004,10.84147 -1.07604,16.21381 -1.01082,4.35968 -2.97294,8.40223 -4.90857,12.40762 -1.83978,4.63948 -4.36223,8.94156 -6.48608,13.44459 -2.25596,5.00724 -4.63986,9.92887 -7.46697,14.63839 -2.83511,3.9758 -5.58914,8.00205 -8.4381,11.96687 -2.75226,3.25809 -5.12768,6.86082 -7.06112,10.66135 -2.13937,4.47262 -5.76815,7.80678 -8.99237,11.47104 -12.35271,12.04663 -29.50503,19.26519 -43.95301,27.29646 -1.46497,0.81433 -3.00413,-0.15734 -4.26458,-0.66282 -4.07318,-1.84687 -6.81758,-5.50417 -9.61155,-8.86142 -2.8517,-4.33897 -6.60876,-7.96295 -9.32925,-12.38161 -2.67492,-3.33309 -4.11962,-7.40519 -6.70336,-10.79429 -3.00342,-3.49351 -5.30904,-6.99602 -6.68845,-11.43459 -0.88418,-4.61037 -1.51557,-9.28802 -3.17045,-13.70716 -0.93504,-2.69101 -2.13246,-5.22674 -3.39849,-7.77227 0,0 36.96651,-21.03689 36.96651,-21.03689 l 0,0 c 1.32229,2.6611 2.60873,5.294 3.57565,8.11004 1.80142,4.48489 2.70342,9.27127 3.34062,14.04587 1.07113,4.03907 3.38303,6.91667 5.98581,10.12179 2.53503,3.5641 4.22123,7.60214 6.83964,11.11009 2.60223,4.2158 6.2059,7.71807 8.96457,11.83707 2.17735,2.48817 4.41163,5.82693 7.98802,6.10072 11.99263,-5.59986 38.38826,-22.10507 -31.67467,18.66272 -0.67563,0.39313 1.31249,-0.84938 1.96874,-1.27407 2.46185,-2.25782 1.13936,-1.24079 3.97033,-3.0474 4.56487,-4.28287 -0.72991,0.87699 3.58742,-3.97543 1.9444,-2.18539 4.64948,-3.71716 5.70395,-6.58396 2.5592,-3.55248 3.98259,-7.88086 6.81747,-11.30055 3.45825,-3.41313 5.70254,-7.78239 8.58999,-11.66955 3.53872,-4.03958 5.6442,-9.10953 7.77697,-13.99165 2.24956,-4.38182 4.33916,-8.78064 6.54105,-13.1762 1.44637,-4.04379 3.72783,-7.66697 5.2956,-11.67403 1.05728,-5.16841 2.07357,-10.14629 1.51168,-15.48497 -1e-5,-5.7136 -2e-5,-11.42721 -1.3e-4,-17.14082 -1.4e-4,-5.7031 -4e-4,-11.4062 -7e-4,-17.1093 -1.2e-4,-5.7125 -7.6e-4,-11.42499 0.005,-17.13748 0.009,-6.42284 0.0277,-12.84567 0.0667,-19.26841 0.0467,-8.69656 0.14307,-17.39609 -0.0796,-26.0909 0,0 37.81572,-19.26807 37.81572,-19.26807 z"
       inkscape:connector-curvature="0" />
    <path
       style="fill:#d40000"
       id="path3011"
       d="m 601.74186,254.38724 c -0.2423,10.03006 -0.16436,20.06489 -0.0987,30.09674 0.0585,8.00414 0.0235,16.00851 0.0484,24.01278 0.0246,7.1617 0.0343,14.32367 0.006,21.48538 0.0186,7.26687 -0.004,14.53367 0.0101,21.80053 0.019,6.31759 0.0346,12.63517 0.0428,18.95278 0.006,5.74088 0.006,11.48176 0.007,17.22265 6e-5,5.70654 -1.5e-4,11.41308 -2.5e-4,17.11962 0.0406,5.8453 0.18804,11.65745 -0.66124,17.45199 -1.2598,6.78852 -1.74405,13.67449 -2.02588,20.56178 -0.20629,6.3473 -0.19959,12.69878 -0.19725,19.04863 -0.0461,6.53168 -0.012,13.06361 0.004,19.59535 0.015,5.88026 0.0192,11.76054 0.0217,17.64082 0.003,7.18017 0.10476,14.33242 -0.73622,21.47138 -0.68869,7.45539 -2.31023,14.71529 -4.28815,21.91789 -2.28477,7.49648 -4.97083,14.85543 -7.91522,22.11493 -2.37683,5.44964 -5.53379,10.48286 -8.02764,15.87631 -2.2021,4.80475 -4.70237,9.39883 -6.50754,14.37351 -2.06528,5.20245 -3.88335,10.51532 -6.15356,15.63293 -2.05733,4.77365 -3.14196,9.90487 -4.4322,14.92709 -1.20513,5.52096 -2.46563,11.06214 -4.40891,16.37581 -1.92161,4.91586 -3.65486,9.86297 -5.14591,14.92404 -1.36827,4.44763 -3.30065,8.65828 -5.08913,12.94131 -2.04375,4.24158 -4.60351,8.18648 -7.01113,12.21792 -5.79464,15.20577 -41.43405,35.7685 -40.52226,14.68734 0,0 38.1726,-18.81535 38.1726,-18.81535 l 0,0 c -0.14095,0.53884 -0.29701,1.07396 -0.42285,1.61653 -0.0996,0.42949 0.12799,1.0766 -0.25315,1.29823 -12.33729,7.17389 -25.00137,13.77044 -37.50206,20.65567 1.40936,-0.67803 0.70357,-0.14244 1.7947,-1.96063 1.90338,-4.33986 4.99595,-7.92114 6.95738,-12.24705 2.48124,-3.74123 3.73097,-8.28439 5.38976,-12.42903 2.09359,-4.81487 2.82251,-10.21838 5.11665,-14.9945 2.03123,-5.14993 3.75686,-10.41172 4.67739,-15.89636 1.15921,-5.25679 2.57373,-10.46289 4.06864,-15.62217 2.26498,-5.07813 4.39134,-10.18851 6.25811,-15.43654 0.99344,-2.45005 1.58336,-5.02002 2.68959,-7.42235 3.25491,-7.06844 -0.87823,2.39693 2.60807,-4.51601 0.44471,-0.88179 0.73693,-1.83255 1.10539,-2.74883 2.59949,-5.3201 4.98576,-10.70522 8.23452,-15.69373 2.89007,-7.17365 5.80555,-14.3176 8.15674,-21.692 1.9536,-7.04058 3.93341,-14.05349 4.49867,-21.37513 1.03438,-6.96022 1.12612,-13.88782 0.8908,-20.92247 0.002,-5.88524 0.005,-11.77047 0.0132,-17.65571 0.008,-6.52953 0.026,-13.05926 -0.0277,-19.58865 0.008,-6.41186 0.021,-12.82479 0.21287,-19.23436 0.24502,-7.0197 0.55492,-14.04654 1.69172,-20.99071 1.03377,-5.59349 1.17158,-11.13458 0.96581,-16.82818 -10e-5,-5.70645 -3.1e-4,-11.41291 -2.5e-4,-17.11936 2.8e-4,-5.74313 4.6e-4,-11.48627 0.007,-17.22939 0.008,-6.33216 0.0239,-12.6643 0.0428,-18.99643 0.0137,-7.2703 -0.008,-14.54054 0.0101,-21.81085 -0.0285,-7.16373 -0.0186,-14.32771 0.006,-21.49142 0.0249,-8.02072 -0.01,-16.04152 0.0484,-24.0621 0.065,-9.9983 0.1454,-19.99969 -0.0987,-29.99614 0,0 37.76943,-19.24449 37.76943,-19.24449 z"
       inkscape:connector-curvature="0" />
    <path
       style="fill:#d40000"
       id="path3013"
       d="m 476.54022,326.97854 c 5.09318,-6.58765 10.88264,-12.63225 17.30817,-17.92434 12.96954,-10.58981 29.39875,-17.37398 43.49169,-25.26406 2.16115,-1.20994 4.14071,-2.03437 6.52024,-2.71777 4.35313,-0.88561 8.31956,-2.96604 12.32122,-4.81203 0.71105,-0.22526 1.46175,-0.35088 2.13314,-0.67579 5.86073,-2.8362 -2.55439,0.39754 3.61298,-2.12135 2.17338,-0.88766 4.20485,-1.102 6.28116,-2.24582 4.66088,-1.32104 8.77911,-3.62178 13.03681,-5.8226 -64.16971,35.71668 -37.52566,24.34609 -26.18978,13.14984 3.1901,-2.53422 5.07441,-6.21763 7.61131,-9.3355 2.49204,-3.31672 4.27562,-7.06614 6.35907,-10.63107 2.02888,-3.6063 4.62658,-6.89959 7.53222,-9.83924 3.11839,-3.41533 5.60077,-7.32982 8.60129,-10.84195 2.82511,-3.94404 6.43104,-7.19841 9.71807,-10.73193 3.32408,-3.65841 5.99959,-7.72441 8.32121,-12.06769 2.12685,-4.28038 4.65154,-8.37549 7.86387,-11.92275 17.3248,-11.51908 33.10361,-31.71986 49.62983,-17.1614 3.10927,3.93469 5.6593,8.29843 8.41967,12.49249 1.93432,3.63034 4.07502,7.23306 6.92481,10.22242 3.10628,2.42811 6.48209,4.34923 9.96241,6.19919 3.5395,2.31926 6.43061,5.38686 9.66497,8.07117 3.56916,3.41797 5.80108,7.81344 8.15261,12.08842 1.80037,4.48847 3.75457,8.93733 5.02813,13.61517 0.65548,4.8275 1.80549,7.32338 4.96359,10.81421 3.24489,2.13013 7.0773,3.69761 10.82431,4.83312 1.8507,0.5141 4.0811,0.55707 5.91209,-0.19209 0.56528,-0.23129 2.04614,-1.33149 1.51303,-1.03346 -34.59808,19.34214 -45.97139,27.83821 -33.59508,18.69665 3.38945,-2.43997 4.6352,-6.57194 6.16814,-10.28412 0.91036,-2.86771 0.50976,-1.39826 1.19196,-4.41103 0,0 38.19483,-18.59883 38.19483,-18.59883 l 0,0 c -0.48677,3.38133 -0.19243,1.71638 -0.87689,4.99591 -1.22974,4.15725 -3.12711,8.60769 -5.19988,12.37943 -13.14754,12.11955 -30.43156,28.05081 -48.53095,22.2599 -4.24314,-1.68354 -8.72087,-3.31665 -11.9993,-6.60672 -3.26132,-3.65178 -5.41331,-7.64286 -5.93157,-12.61051 -1.06,-4.38713 -2.96948,-8.46941 -4.51444,-12.69125 -2.10043,-3.85146 -4.06223,-7.82724 -7.42044,-10.76479 -2.91792,-2.62658 -5.79993,-5.31742 -9.18924,-7.34453 -3.75805,-2.20047 -7.58831,-4.27513 -10.71401,-7.37632 -2.82884,-3.29199 -5.2595,-6.91604 -7.22396,-10.78919 -2.51312,-3.81913 -4.74289,-7.9031 -7.71439,-11.36191 -1.59621,-1.1255 -3.09752,-2.12588 -5.14013,-2.19704 -1.19659,-0.0417 -4.43426,1.75662 -3.40407,1.14647 11.43915,-6.77516 22.92407,-13.47273 34.38611,-20.20909 -4.15417,2.19561 -6.15971,6.39722 -8.6936,10.18089 -2.06086,4.76629 -4.61076,9.09213 -7.81891,13.14612 -3.1322,3.66324 -6.6721,6.82099 -9.79097,10.46642 -2.70947,3.76981 -5.98106,7.09934 -8.48549,11.03586 -2.44656,3.16943 -5.59409,5.7035 -7.91025,9.0006 -1.94228,3.79416 -4.12506,7.40274 -6.1221,11.14588 -2.31214,3.47627 -5.13857,6.56688 -7.25774,10.18785 -4.69038,3.63213 1.53591,-1.37474 -2.99935,2.92199 -12.29796,11.65118 -31.29925,14.99266 -43.35616,26.54574 -4.2672,2.2362 -8.86804,3.65481 -13.27112,5.59178 -4.16865,1.3215 -7.92223,3.48007 -11.95098,5.14909 -4.02803,1.87332 -8.33259,3.08088 -12.5315,4.50265 -8.12404,3.58326 4.02957,-1.80758 -4.12677,1.91201 -0.73188,0.33377 -2.9108,1.35948 -2.21812,0.95052 59.43087,-35.08811 41.77241,-24.46069 29.1025,-16.90646 -6.20822,5.31352 -12.64027,10.35171 -17.66562,16.91629 0,0 -38.90863,16.87455 -38.90863,16.87455 z"
       inkscape:connector-curvature="0" />
    <path
       style="fill:#d40000"
       id="path3015"
       d="m 585.90142,269.13792 c -19.10084,11.90473 -38.10111,26.47413 -60.43302,31.62143 -4.33611,1.2343 -8.91465,0.69524 -13.31243,1.27108 -1.67456,0.21927 -3.27832,0.81339 -4.91865,1.21531 -3.06204,0.56544 -6.20038,0.97895 -8.96602,2.52961 -1.20147,0.67365 -2.21658,1.64568 -3.40782,2.33725 -0.67422,0.26219 -1.33375,0.56585 -2.02266,0.78658 -5.02548,1.61016 0.37815,-0.61097 -4.02769,1.66213 -0.63973,0.33006 -2.60237,1.2243 -1.97932,0.86374 39.97923,-23.13625 45.7255,-26.85886 32.98837,-18.70065 -21.9001,15.0299 -30.12733,22.60524 -50.859,23.48023 -4.08864,-0.33337 -6.81137,-2.53492 -9.39517,-5.49247 0,0 36.30787,-22.09234 36.30787,-22.09234 l 0,0 c 2.10368,1.99989 4.30414,2.74127 7.2529,2.39025 17.00138,-1.71333 39.05481,-18.16648 -22.97536,17.0836 15.70688,-9.40859 31.16867,-19.21329 47.797,-26.72022 4.07885,-2.23609 8.60572,-2.94163 13.13436,-3.79234 5.95238,-1.01726 12.09346,-0.77567 17.92989,-2.54485 3.97376,-1.19326 7.77845,-2.52857 11.51155,-4.36803 1.42311,-0.70123 5.57083,-3.03686 4.20371,-2.23191 -40.49574,23.84346 -41.42766,24.47445 -28.27318,16.28204 0,0 39.44467,-15.58044 39.44467,-15.58044 z"
       inkscape:connector-curvature="0" />
    <path
       style="fill:#d40000"
       id="path3017"
       d="m 500.28726,305.55142 c 1.16742,0.77818 2.33484,1.55637 3.50226,2.33455 0,0 -35.50613,22.80199 -35.50613,22.80199 l 0,0 c -1.26199,-0.79437 -2.52398,-1.58873 -3.78596,-2.38309 0,0 35.78983,-22.75345 35.78983,-22.75345 z"
       inkscape:connector-curvature="0" />
    <path
       style="fill:#d40000"
       id="path3019"
       d="m 498.01378,306.11528 c -2.74569,4.23744 -5.7904,8.96344 -10.35145,11.50202 -39.1796,21.80646 -25.25332,26.65208 -41.33888,20.23541 -0.53112,-0.48743 -1.17854,-0.87273 -1.59336,-1.46231 -8.70656,-12.37438 23.26011,-19.61924 36.40584,-27.11052 0.59565,-0.33944 1.38872,-0.01 2.04683,-0.20162 0.62517,-0.18249 1.15548,-0.60119 1.73321,-0.90178 0.67238,-0.2425 1.34476,-0.48501 2.01714,-0.72752 0,0 -33.47529,26.23607 -33.47529,26.23607 l 0,0 c -0.66228,0.26644 -1.32455,0.53289 -1.98683,0.79933 -13.1005,3.9118 -39.2246,26.58621 31.37456,-19.55631 0.58172,-0.3802 -3.40961,-1.35296 -1.71631,-1.59597 13.89726,-4.52324 -0.0134,-0.0942 -33.01243,19.4908 -0.92747,0.55045 2.02739,-0.7661 2.95769,-1.31174 3.37426,-1.97907 6.12918,-4.81126 8.17762,-8.11737 0,0 38.76166,-17.27849 38.76166,-17.27849 z"
       inkscape:connector-curvature="0" />
    <path
       style="fill:#d40000"
       id="path3021"
       d="m 488.31954,298.43884 c 2.3876,5.07377 5.25445,9.92294 8.39683,14.56166 0,0 -36.45459,21.35096 -36.45459,21.35096 l 0,0 c -3.1086,-4.77583 -5.95215,-9.72016 -8.70436,-14.70982 0,0 36.76212,-21.2028 36.76212,-21.2028 z"
       inkscape:connector-curvature="0" />
    <path
       style="fill:none;stroke:#000000;stroke-width:1px;stroke-linecap:butt;stroke-linejoin:miter;stroke-opacity:1"
       d="m 217.14286,129.50504 c -3.92019,9.86049 -10.34483,18.71921 -14.28572,28.57143 -3.27077,8.17694 -1.69398,7.5852 -5.71428,14.28571 -1.76671,2.94451 -4.17862,5.50009 -5.71429,8.57143 -2.69374,5.38748 -3.02054,11.75538 -5.71428,17.14286 -0.60234,1.20468 -2.43123,1.57939 -2.85715,2.85714 -0.60234,1.80702 0.46198,3.8664 0,5.71429 -0.5165,2.066 -2.34064,3.64828 -2.85714,5.71428 -0.93915,3.75661 1.18281,10.73729 0,14.28572 -0.42592,1.27775 -2.43123,1.57939 -2.85714,2.85714 -0.60234,1.80702 0,3.80952 0,5.71429 0,0.95238 0.42591,2.0053 0,2.85714 -0.60234,1.20468 -2.25481,1.65246 -2.85715,2.85714 -1.14285,2.28572 1.14286,6.28572 0,8.57143 -0.60233,1.20468 -2.2548,1.65247 -2.85714,2.85714 -0.90124,1.80249 0.90124,12.48323 0,14.28572 -0.60234,1.20467 -2.2548,1.65246 -2.85714,2.85714 -0.36936,0.73872 0,15.11771 0,17.14286 0,0.95238 0,1.90476 0,2.85714 0,0.95238 0.67343,2.18371 0,2.85714 -0.67344,0.67344 -2.18371,-0.67343 -2.85714,0 -0.67344,0.67344 0,1.90476 0,2.85715 0,0.95238 0,1.90476 0,2.85714 0,9.52381 0,19.04762 0,28.57143 0,21.90476 0,43.80952 0,65.71428 0,10.47619 0,20.95238 0,31.42857 0,0.95238 0,1.90477 0,2.85715 0,0.95238 -0.67344,2.1837 0,2.85714 0.67343,0.67343 2.1837,-0.67344 2.85714,0 0.67343,0.67343 -0.67344,2.18371 0,2.85714 0.67343,0.67344 2.18371,-0.67343 2.85714,0 0.0919,0.0919 0,7.8785 0,8.57143 0,10.47619 0,20.95238 0,31.42857 0,1.49406 -0.37563,10.67731 0,11.42857 0.60234,1.20468 2.25481,1.65247 2.85714,2.85715 0.51662,1.03324 0,12.29845 0,14.28571 0,12.38095 0,24.76191 0,37.14286 0,12.38095 0,24.7619 0,37.14286 0,2.02514 0.36936,16.40414 0,17.14285 -0.60233,1.20468 -2.2548,1.65247 -2.85714,2.85715 -1.14286,2.28571 1.14286,6.28571 0,8.57142 -0.60234,1.20468 -2.2548,1.65247 -2.85714,2.85715 -1.14286,2.28571 1.14286,6.28571 0,8.57143 -0.60234,1.20467 -2.25481,1.65246 -2.85714,2.85714 -0.56642,1.13283 0.5841,7.98732 0,8.57143 -0.67344,0.67343 -2.18371,-0.67344 -2.85715,0 -0.67343,0.67343 0,1.90476 0,2.85714 0,0.95238 0,1.90476 0,2.85714 0,0.95238 0,1.90476 0,2.85715 0,0.95238 0.67344,2.1837 0,2.85714 -0.67343,0.67343 -2.1837,-0.67344 -2.85714,0 -0.68752,0.68752 0.68752,10.74105 0,11.42857 -0.67344,0.67343 -2.18371,-0.67344 -2.85714,0 -0.67344,0.67343 0.95238,2.85714 0,2.85714 -0.95238,0 0.67343,-2.18371 0,-2.85714 -1.34687,-1.34687 -4.36742,1.34687 -5.71429,0 -0.67343,-0.67344 0.67344,-2.18371 0,-2.85714 -0.67343,-0.67344 -2.00531,0.42591 -2.85714,0 -1.20468,-0.60234 -1.65247,-2.25481 -2.85714,-2.85715 -0.85184,-0.42591 -2.18371,0.67344 -2.85715,0 -0.67343,-0.67343 0.67344,-2.1837 0,-2.85714 -1.34687,-1.34687 -4.01061,0.85184 -5.71428,0 -1.20468,-0.60234 -1.65247,-2.2548 -2.85715,-2.85714 -1.79577,-0.89789 -9.63279,0.89789 -11.42857,0 -1.20467,-0.60234 -1.65246,-2.25481 -2.85714,-2.85714 -1.03324,-0.51662 -12.29846,0 -14.28571,0 -1.04925,0 -11.313601,0.11497 -11.428576,0 -0.673435,-0.67344 0.673435,-2.18371 0,-2.85715 -1.34687,-1.34687 -4.367415,1.34687 -5.714285,0 -0.673435,-0.67343 0.673435,-2.18371 0,-2.85714 -1.34687,-1.34687 -4.367416,1.34687 -5.714286,0 -0.673435,-0.67344 0.673435,-2.18371 0,-2.85714 -1.34687,-1.34687 -4.367416,1.34687 -5.714286,0 -0.673435,-0.67344 0.673435,-2.18371 0,-2.85715 -1.34687,-1.34687 -5.714286,1.90477 -5.714286,0 0,-0.95238 3.809524,0 2.857143,0 -1.904762,0 -3.809524,0 -5.714285,0 -7.619048,0 -15.238096,0 -22.857143,0 -0.952381,0 -2.183708,-0.67343 -2.857143,0 -0.673435,0.67344 0,1.90477 0,2.85715 0,0.95238 -0.425918,2.0053 0,2.85714 0.602338,1.20468 2.254804,1.65247 2.857143,2.85714 0.425917,0.85184 -0.673435,2.18371 0,2.85715 0.673435,0.67343 2.183708,-0.67344 2.857143,0 0.673435,0.67343 -0.673435,2.1837 0,2.85714 0.673435,0.67343 2.183707,-0.67344 2.857142,0 0.673435,0.67343 -0.425917,2.00531 0,2.85714 5.945373,11.89075 -0.197244,-3.05439 5.714286,2.85714 0.673435,0.67344 -0.425918,2.00531 0,2.85715 0.602339,1.20467 2.254804,1.65246 2.857143,2.85714 0.425918,0.85184 -0.425918,2.00531 0,2.85714 1.714286,3.42857 6.857143,5.14286 8.571429,8.57143 0.425917,0.85184 -0.425918,2.00531 0,2.85714 0.602338,1.20468 2.254804,1.65247 2.857142,2.85715 0.425918,0.85183 -0.673435,2.1837 0,2.85714 0.673435,0.67343 2.183708,-0.67344 2.857143,0 0.673435,0.67343 -0.425917,2.00531 0,2.85714 0.602339,1.20468 2.254805,1.65247 2.857143,2.85715 0.425918,0.85183 -0.425918,2.0053 0,2.85714 0.602339,1.20468 2.254804,1.65246 2.857143,2.85714 0.425918,0.85184 -0.425918,2.00531 0,2.85714 0.602339,1.20468 2.254804,1.65247 2.857143,2.85715 0.425918,0.85183 0,1.90476 0,2.85714 0.952381,0.95238 2.254804,1.65247 2.857143,2.85714 0.425917,0.85184 -0.425918,2.00531 0,2.85715 0.602338,1.20467 2.254804,1.65246 2.857143,2.85714 0.425917,0.85183 -0.425918,2.00531 0,2.85714 0.602338,1.20468 2.254804,1.65247 2.857142,2.85714 0.566417,1.13284 -0.584104,7.98733 0,8.57143 0.673435,0.67344 2.183708,-0.67343 2.857143,0 1.34687,1.34687 -0.851835,4.01062 0,5.71429 0.602339,1.20468 2.254805,1.65246 2.857143,2.85714 0.425918,0.85184 -0.425918,2.00531 0,2.85714 0.602339,1.20468 2.254804,1.65247 2.857143,2.85715 0.42592,0.85183 -0.425918,2.0053 0,2.85714 0.60234,1.20468 2.2548,1.65247 2.85714,2.85714 0.85184,1.70367 -1.34687,4.36742 0,5.71429 0.67344,0.67343 2.18371,-0.67344 2.85715,0 1.34687,1.34687 -1.34687,4.36741 0,5.71428 0.67343,0.67344 2.1837,-0.67343 2.85714,0 0.67343,0.67344 -0.42592,2.00531 0,2.85715 0.60234,1.20467 2.2548,1.65246 2.85714,2.85714 0.42592,0.85184 -0.67343,2.18371 0,2.85714 0.67344,0.67344 2.18371,-0.67343 2.85714,0 0.67344,0.67344 -0.67343,2.18371 0,2.85715 0.67344,0.67343 2.18371,-0.67344 2.85715,0 0.67343,0.67343 -0.67344,2.1837 0,2.85714 0.67343,0.67343 2.1837,-0.67344 2.85714,0 1.34687,1.34687 -1.34687,4.36741 0,5.71428 0.67344,0.67344 2.18371,-0.67343 2.85714,0 0.67344,0.67344 -0.42591,2.00531 0,2.85715 0.60234,1.20467 2.25481,1.65246 2.85715,2.85714 0.42591,0.85184 -0.42592,2.00531 0,2.85714 0.60233,1.20468 2.2548,1.65247 2.85714,2.85715 0.42592,0.85183 -0.67344,2.1837 0,2.85714 0.67343,0.67343 2.18371,-0.67344 2.85714,0 0.67344,0.67343 -0.42592,2.00531 0,2.85714 0.60234,1.20468 2.25481,1.65247 2.85714,2.85714 0.42592,0.85184 -0.67343,2.18371 0,2.85715 0.67344,0.67343 2.18371,-0.67344 2.85715,0 0.67343,0.67343 -0.67344,2.1837 0,2.85714 0.67343,0.67343 1.90476,0 2.85714,0 6.66667,0 13.33333,0 20,0 0.95238,0 1.90476,0 2.85714,0 0.95238,0 2.85715,-0.95238 2.85715,0 0,0.95238 -3.80953,0 -2.85715,0 3.80953,0 7.61905,0 11.42857,0 1.34714,0 14.15623,-0.12949 14.28572,0 0.67343,0.67343 -0.67344,2.18371 0,2.85714 1.34687,1.34687 4.36741,-1.34687 5.71428,0 0.67344,0.67344 -0.67343,2.18371 0,2.85715 0.78178,0.78177 9.87861,-0.77499 11.42858,0 1.20467,0.60233 1.65246,2.2548 2.85714,2.85714 0.85183,0.42592 1.90476,0 2.85714,0 0.95238,0 1.90476,0 2.85714,0 6.70051,0 -1.34687,-0.67344 5.71429,2.85714 0.75126,0.37563 9.93451,0 11.42857,0 0.95238,0 2.18371,0.67344 2.85714,0 1.34687,-1.34687 -1.34687,-4.36741 0,-5.71428 0.67344,-0.67344 2.18371,0.67343 2.85715,0 0.67343,-0.67344 -0.42592,-2.00531 0,-2.85715 0.60234,-1.20467 1.90476,-1.90476 2.85714,-2.85714 0,-1.90476 -0.60234,-3.90727 0,-5.71429 0.6449,-1.93471 7.48016,-6.38889 8.57143,-8.57142 0,-7.61905 -0.95238,0.95238 2.85714,-2.85715 0.67344,-0.67343 -0.67343,-2.18371 0,-2.85714 0.67344,-0.67344 2.18371,0.67343 2.85714,0 0.67344,-0.67344 -0.67343,-2.18371 0,-2.85714 1.34687,-1.34687 4.36742,1.34687 5.71429,0 0.67344,-0.67344 -0.67344,-2.18371 0,-2.85715 5.76,-5.76 -0.0457,5.76 5.71429,0 0.67343,-0.67343 -0.67344,-2.1837 0,-2.85714 0.67343,-0.67343 1.90476,0 2.85714,0 5.71428,0 11.42857,0 17.14286,0 1.28673,0 7.7019,0.43476 8.57142,0 1.20468,-0.60234 1.65247,-2.2548 2.85715,-2.85714 1.79577,-0.89789 9.63279,0.89789 11.42857,0 1.20468,-0.60234 1.65246,-2.25481 2.85714,-2.85714 1.79578,-0.89789 9.6328,0.89788 11.42857,0 1.20468,-0.60234 1.65247,-2.25481 2.85715,-2.85715 0.85183,-0.42592 2.0053,0.42592 2.85714,0 1.20468,-0.60234 1.65246,-2.2548 2.85714,-2.85714 0.85184,-0.42592 2.00531,0.42592 2.85714,0 1.20468,-0.60234 1.65247,-2.2548 2.85715,-2.85714 1.70367,-0.85184 4.01061,0.85183 5.71428,0 1.20468,-0.60234 1.65247,-2.25481 2.85715,-2.85715 0.85183,-0.42591 1.90476,0 2.85714,0 0.95238,-0.95238 1.65246,-2.2548 2.85714,-2.85714 0.85184,-0.42592 2.00531,0.42592 2.85714,0 1.20468,-0.60234 1.65247,-2.2548 2.85715,-2.85714 0.85183,-0.42592 2.1837,0.67343 2.85714,0 0.67344,-0.67344 -0.67344,-2.18371 0,-2.85714 1.34687,-1.34687 4.36742,1.34687 5.71429,0 0.67343,-0.67344 -0.67344,-2.18371 0,-2.85715 0.67343,-0.67343 1.90476,0 2.85714,0 0,-0.95238 -0.67344,-2.18371 0,-2.85714 0.67343,-0.67344 2.18371,0.67343 2.85714,0 0.67344,-0.67344 -0.67343,-2.18371 0,-2.85714 0.67344,-0.67344 2.18371,0.67343 2.85714,0 0.67344,-0.67344 -0.67343,-2.18371 0,-2.85715 0.67344,-0.67343 2.00531,0.42592 2.85715,0 0.7586,-0.3793 8.19212,-7.81282 8.57143,-8.57142 0.42591,-0.85184 -0.67344,-2.18371 0,-2.85715 0.67343,-0.67343 2.0053,0.42592 2.85714,0 1.20468,-0.60234 1.65246,-2.2548 2.85714,-2.85714 0.85184,-0.42592 2.18371,0.67343 2.85714,0 0.67344,-0.67344 -0.67343,-2.18371 0,-2.85714 1.34687,-1.34687 4.36742,1.34687 5.71429,0 0.67344,-0.67344 -0.67344,-2.18371 0,-2.85715 1.88235,-1.88235 3.83193,1.88236 5.71429,0 0.67343,-0.67343 -0.67344,-2.1837 0,-2.85714 1.34687,-1.34687 4.36741,1.34687 5.71428,0 0.67344,-0.67343 -0.67343,-2.18371 0,-2.85714 0.67344,-0.67344 2.00531,0.42592 2.85714,0 1.20468,-0.60234 1.65247,-2.25481 2.85715,-2.85714 0.85183,-0.42592 2.1837,0.67343 2.85714,0 0.67344,-0.67344 -0.67344,-2.18371 0,-2.85715 0.67344,-0.67343 2.00531,0.42592 2.85714,0 11.89075,-5.94537 -3.05438,0.19725 2.85715,-5.71428 0.67343,-0.67344 2.1837,0.67343 2.85714,0 0.67343,-0.67344 -0.67344,-2.18371 0,-2.85715 0.67343,-0.67343 1.90476,0 2.85714,0 0,-0.95238 -0.42592,-2.0053 0,-2.85714 5.94537,-11.89074 -0.19724,3.05439 5.71429,-2.85714 0.67343,-0.67344 -0.67344,-2.18371 0,-2.85714 0.67343,-0.67344 2.1837,0.67343 2.85714,0 0.67344,-0.67344 0,-1.90477 0,-2.85715 0,-0.95238 0.67344,-2.18371 0,-2.85714 -0.67344,-0.67344 -2.18371,0.67343 -2.85714,0 -0.67344,-0.67344 0.67343,-2.18371 0,-2.85714 -1.34687,-1.34687 -4.36742,1.34687 -5.71429,0 -3.80952,-3.80953 4.76191,-2.85715 -2.85714,-2.85715 -6.70051,0 1.34687,0.67344 -5.71429,-2.85714 -0.85183,-0.42592 -2.0053,0.42592 -2.85714,0 -1.20468,-0.60234 -1.65247,-2.2548 -2.85714,-2.85714 -0.85184,-0.42592 -2.00531,0.42592 -2.85715,0 -1.20467,-0.60234 -1.57939,-2.43123 -2.85714,-2.85714 -1.80701,-0.60234 -3.90727,0.60233 -5.71428,0 -1.27776,-0.42592 -1.65247,-2.25481 -2.85715,-2.85715 -0.75126,-0.37563 -9.93451,0 -11.42857,0 -9.52381,0 -19.04762,0 -28.57143,0 -6.70051,0 1.34687,-0.67343 -5.71428,2.85715 -0.85184,0.42591 -2.00531,-0.42592 -2.85715,0 -1.20467,0.60233 -1.65246,2.2548 -2.85714,2.85714 -0.85183,0.42592 -1.90476,0 -2.85714,0 -0.95238,0.95238 -1.65247,2.2548 -2.85714,2.85714 -0.85184,0.42592 -2.18371,-0.67343 -2.85715,0 -0.67343,0.67344 0.67344,2.18371 0,2.85714 -0.0919,0.0919 -7.87849,0 -8.57143,0 -0.95238,0 -1.90476,0 -2.85714,0 -0.95238,0 -2.18371,0.67344 -2.85714,0 -1.34687,-1.34687 1.34687,-4.36741 0,-5.71428 -0.67344,-0.67344 -2.18371,0.67343 -2.85714,0 -0.67344,-0.67344 0,-1.90476 0,-2.85714 0,-0.95239 0,-1.90477 0,-2.85715 0,-0.95238 -0.95239,-2.85714 0,-2.85714 0.95238,0 0,3.80952 0,2.85714 0,-1.90476 0,-3.80952 0,-5.71428 0,-5.71429 0,-11.42857 0,-17.14286 0,-5.71429 0,-11.42857 0,-17.14286 0,-0.95238 -0.67344,-2.18371 0,-2.85714 0.67343,-0.67344 2.1837,0.67343 2.85714,0 1.42857,-1.42857 -1.42857,-7.14286 0,-8.57143 0.67343,-0.67343 2.18371,0.67344 2.85714,0 1.34687,-1.34687 -1.34687,-4.36741 0,-5.71428 0.67344,-0.67344 2.18371,0.67343 2.85714,0 1.34687,-1.34687 -0.85183,-4.01062 0,-5.71429 0.60234,-1.20468 2.25481,-1.65247 2.85715,-2.85714 0.85183,-1.70367 -1.34687,-4.36742 0,-5.71429 0.67343,-0.67343 2.1837,0.67344 2.85714,0 0.67344,-0.67343 0,-1.90476 0,-2.85714 0,-0.95238 0,-1.90476 0,-2.85714 0,-4.76191 0,-9.52381 0,-14.28572 0,-0.95238 0,-1.90476 0,-2.85714 0,-0.95238 -0.42592,-2.00531 0,-2.85714 0.60234,-1.20468 2.2548,-1.65247 2.85714,-2.85715 0.37563,-0.75126 0,-9.93451 0,-11.42857 0,-8.57143 0,-17.14286 0,-25.71428 0,-1.49406 -0.37563,-10.67731 0,-11.42858 0.60234,-1.20467 2.25481,-1.65246 2.85715,-2.85714 0.42591,-0.85183 -0.42592,-2.00531 0,-2.85714 0.60233,-1.20468 2.2548,-1.65247 2.85714,-2.85714 0.85183,-1.70368 -1.34687,-4.36742 0,-5.71429 0.67343,-0.67344 2.18371,0.67343 2.85714,0 0.67344,-0.67344 -0.42592,-2.00531 0,-2.85714 0.60234,-1.20468 2.25481,-1.65247 2.85714,-2.85715 0.85184,-1.70367 -1.34687,-4.36741 0,-5.71428 0.67344,-0.67344 2.18371,0.67343 2.85715,0 1.34687,-1.34687 -0.85184,-4.01062 0,-5.71429 0.60234,-1.20467 2.43122,-1.57939 2.85714,-2.85714 0.60234,-1.80702 0,-3.80952 0,-5.71429 0,-0.95238 -0.42592,-2.0053 0,-2.85714 0.60234,-1.20468 2.2548,-1.65246 2.85714,-2.85714 0.42592,-0.85184 -0.42591,-2.00531 0,-2.85714 0.60234,-1.20468 2.43123,-1.57939 2.85715,-2.85715 0.60233,-1.80701 -0.60234,-3.90727 0,-5.71428 0.42591,-1.27776 2.2548,-1.65247 2.85714,-2.85715 0.85183,-1.70367 -0.85184,-4.01061 0,-5.71428 0.60234,-1.20468 2.43122,-1.57939 2.85714,-2.85714 0.60234,-1.80702 -0.46197,-3.8664 0,-5.71429 0.5165,-2.066 2.18371,-3.69398 2.85714,-5.71429 0.30117,-0.9035 0,-1.90476 0,-2.85714 0,-3.33478 -0.55726,-14.91379 0,-17.14286 0.51651,-2.066 2.34065,-3.64828 2.85715,-5.71428 0.46197,-1.84789 0,-3.80953 0,-5.71429 0,-4.7619 0,-9.52381 0,-14.28571 0,-15.2381 0,-30.47619 0,-45.71429 0,-2.87729 -0.52669,-15.5628 0,-17.14285 0.42591,-1.27776 2.43122,-1.57939 2.85714,-2.85715 0.60234,-1.80701 0,-3.80952 0,-5.71428 0,-0.95238 -0.42592,-2.00531 0,-2.85715 0.60234,-1.20467 2.2548,-1.65246 2.85714,-2.85714 0.91289,-1.82578 -0.76657,-9.12886 0,-11.42857 6.89849,-20.69548 -0.82372,4.50459 5.71429,-8.57143 0.91289,-1.82578 -0.76657,-9.12886 0,-11.42857 0.67343,-2.02031 2.18371,-3.69398 2.85714,-5.71429 0.30117,-0.9035 -0.30117,-1.95363 0,-2.85714 0.67344,-2.0203 2.18371,-3.69398 2.85714,-5.71428 0.30117,-0.90351 -0.42591,-2.00531 0,-2.85715 0.60234,-1.20467 2.25481,-1.65246 2.85715,-2.85714 0.42591,-0.85184 0,-1.90476 0,-2.85714 0,-1.90477 -0.60234,-3.90727 0,-5.71429 0.42591,-1.27775 2.2548,-1.65246 2.85714,-2.85714 0.42592,-0.85184 0,-1.90476 0,-2.85714 0,-1.90477 -0.60234,-3.90727 0,-5.71429 0.42592,-1.27775 2.2548,-1.65247 2.85714,-2.85714 0.85184,-1.70367 -0.85183,-4.01062 0,-5.71429 0.60234,-1.20468 2.25481,-1.65246 2.85715,-2.85714 0.77498,-1.54997 -0.78178,-10.6468 0,-11.42857 0.67343,-0.67344 2.1837,0.67343 2.85714,0 0.5841,-0.58411 -0.56642,-7.4386 0,-8.57143 0.60234,-1.20468 2.2548,-1.65247 2.85714,-2.85714 0.51662,-1.03324 0,-12.29846 0,-14.28572 0,-0.95238 0,-1.90476 0,-2.85714 0,-0.95238 -0.67343,-2.18371 0,-2.85714 0.67344,-0.67344 2.18371,0.67343 2.85714,0 1.00292,-1.00292 -0.98676,-12.31219 0,-14.28572 0.60234,-1.20468 2.25481,-1.65246 2.85715,-2.85714 0.42591,-0.85184 -0.42592,-2.00531 0,-2.85714 0.60234,-1.20468 2.2548,-1.65247 2.85714,-2.85715 0.42592,-0.85183 -0.67344,-2.18371 0,-2.85714 0.67344,-0.67344 2.18371,0.67343 2.85714,0 0.67344,-0.67344 -0.42591,-2.00531 0,-2.85714 0.60234,-1.20468 2.25481,-1.65247 2.85715,-2.85715 0.85183,-1.70367 -0.85184,-4.01061 0,-5.71428 0.60233,-1.20468 2.2548,-1.65247 2.85714,-2.85714 0.42592,-0.85184 0,-1.90477 0,-2.85715 0,-0.95238 0,-1.90476 0,-2.85714 0,-4.76191 0,-9.52381 0,-14.28571 0,-1.34714 0.12949,-14.15623 0,-14.28572 -0.67344,-0.67343 -1.90476,0 -2.85714,0 -0.95239,0 -1.90477,0 -2.85715,0 -13.33333,0 -26.66666,0 -40,0 -27.61904,0 -55.23809,0 -82.85714,0 -1.34714,0 -14.15622,-0.12949 -14.28571,0 -0.67344,0.67344 0.67343,2.18371 0,2.85714 -0.68752,0.68752 -10.74106,-0.68751 -11.42858,0 -0.67343,0.67344 0.67344,2.18371 0,2.85715 -1.34687,1.34687 -4.01061,-0.85184 -5.71428,0 -1.20468,0.60234 -1.65247,2.2548 -2.85714,2.85714 -0.85184,0.42592 -2.18371,-0.67344 -2.85715,0 -0.67343,0.67343 0.67344,2.18371 0,2.85714 -0.68751,0.68752 -10.74105,-0.68751 -11.42857,0 -0.67343,0.67344 0.67344,2.18371 0,2.85715 -1.42857,1.42857 -7.14286,-1.42858 -8.57143,0 -0.67343,0.67343 0.67344,2.1837 0,2.85714 -1.34687,1.34687 -4.36741,-1.34687 -5.71428,0 -0.67344,0.67343 0.67343,2.18371 0,2.85714 -1.34687,1.34687 -4.36742,-1.34687 -5.71429,0 -0.67343,0.67344 0.67344,2.18371 0,2.85714 -0.67343,0.67344 -1.97288,-0.3537 -2.85714,0 -3.95455,1.58182 -7.61905,3.80953 -11.42857,5.71429 z"
       id="path3025"
       inkscape:connector-curvature="0" />
    <path
       style="fill:none;stroke:#000000;stroke-width:1px;stroke-linecap:butt;stroke-linejoin:miter;stroke-opacity:1"
       d="m 128.57143,789.50504 c 2.85714,3.80953 5.71428,7.61905 8.57143,11.42857 0,0.95238 -0.42592,2.00531 0,2.85715 0.60233,1.20467 2.2548,1.65246 2.85714,2.85714 0.42592,0.85184 -0.42592,2.00531 0,2.85714 0.60234,1.20468 2.2548,1.65247 2.85714,2.85715 0.42592,0.85183 -0.67343,2.1837 0,2.85714 0.67344,0.67343 2.18371,-0.67344 2.85714,0 1.34687,1.34687 -1.34687,4.36741 0,5.71428 0.67344,0.67344 2.18371,-0.67343 2.85715,0 1.34687,1.34687 -1.34687,4.36742 0,5.71429 0.67343,0.67343 2.1837,-0.67344 2.85714,0 0.67344,0.67343 -0.42592,2.00531 0,2.85714 0.60234,1.20468 2.2548,1.65247 2.85714,2.85715 0.42592,0.85183 -0.42591,2.0053 0,2.85714 0.60234,1.20468 2.25481,1.65246 2.85715,2.85714 0.85183,1.70367 -1.34687,4.36742 0,5.71429 0.67343,0.67343 2.1837,-0.67344 2.85714,0 0.67343,0.67343 -0.67344,2.1837 0,2.85714 0.67343,0.67343 2.18371,-0.67344 2.85714,0 0.67344,0.67343 -0.42592,2.00531 0,2.85714 0.60234,1.20468 2.25481,1.65247 2.85714,2.85715 0.42592,0.85183 -0.67343,2.1837 0,2.85714 0.67344,0.67343 2.18371,-0.67344 2.85715,0 1.34687,1.34687 -0.85184,4.01061 0,5.71428 0.60234,1.20468 1.90476,1.90477 2.85714,2.85715 0.95238,0.95238 1.65247,2.2548 2.85714,2.85714 0.24356,0.12178 11.18501,0.12178 11.42857,0 3.42858,-1.71429 5.14286,-6.85714 8.57143,-8.57143 7.61905,0 -0.95238,0.95238 2.85715,-2.85714 5.91153,-5.91153 -0.23109,9.0336 5.71428,-2.85714 1.97051,-3.94102 -3.46016,-2.55564 2.85714,-5.71429 0.85184,-0.42592 2.18371,0.67343 2.85715,0 0.67343,-0.67344 -0.42592,-2.00531 0,-2.85714 0.60234,-1.20468 2.2548,-1.65247 2.85714,-2.85715 0.42592,-0.85183 -0.42592,-2.0053 0,-2.85714 1.20468,-2.40935 4.50961,-3.30493 5.71429,-5.71428 0.85183,-1.70368 -1.34687,-4.36742 0,-5.71429 0.67343,-0.67344 2.1837,0.67343 2.85714,0 1.34687,-1.34687 -1.34687,-4.36742 0,-5.71429 0.67343,-0.67343 2.18371,0.67344 2.85714,0 1.34687,-1.34687 -1.34687,-4.36741 0,-5.71428 0.67344,-0.67344 2.18371,0.67343 2.85714,0 0.68752,-0.68752 -0.68751,-10.74106 0,-11.42857 0.67344,-0.67344 2.18371,0.67343 2.85715,0 0.67343,-0.67344 0,-1.90477 0,-2.85715 0,-0.95238 0.67343,-2.1837 0,-2.85714 -0.67344,-0.67343 -2.00531,0.42592 -2.85715,0 -1.20467,-0.60234 -1.65246,-2.2548 -2.85714,-2.85714 -0.86952,-0.43476 -7.28469,0 -8.57143,0 -5.71428,0 -11.42857,0 -17.14285,0 -12.38096,0 -24.76191,0 -37.14286,0 -2.76819,0 -15.43923,0.56788 -17.14286,0 -4.86554,-1.62185 -9.52381,-3.80953 -14.28571,-5.71429 z"
       id="path3027"
       inkscape:connector-curvature="0" />
    <path
       style="fill:#0000ff"
       d="m 210.14286,791.72644 c -9.42857,-1.4346 -29.12126,-3.2544 -43.76152,-4.04397 l -26.61867,-1.4356 -8.17367,-13.37092 c -4.49552,-7.354 -10.86682,-16.82268 -14.15844,-21.0415 -5.45507,-6.99169 -12.21077,-20.85009 -29.65548,-60.83418 -6.848426,-15.6969 -25.27066,-44.66922 -35.468679,-55.78094 l -6.555505,-7.14286 12.731541,-0.86353 c 8.304596,-0.56327 16.519203,1.03527 23.624552,4.59728 5.991157,3.00345 19.729891,6.25131 30.530521,7.21746 11.83555,1.05872 23.53563,4.05657 29.44903,7.54557 17.68524,10.43454 18.8871,9.27043 27.68929,-26.81955 7.55054,-30.95804 7.9057,-35.41763 7.01719,-88.11037 l -0.93588,-55.50189 11.42857,2.64284 c 6.28572,1.45357 22.73177,2.13329 36.54679,1.5105 l 25.11822,-1.13234 20.59607,25.5808 c 11.32784,14.06943 25.47034,32.46795 31.42778,40.88558 5.95744,8.41764 11.81129,15.30479 13.00856,15.30479 1.19727,0 7.61038,-3.99586 14.25136,-8.87968 l 12.07448,-8.87968 -1.81097,12.45111 c -0.99606,6.84811 -4.25691,14.59322 -7.24637,17.21135 -4.13526,3.62162 -4.84794,6.35528 -2.97957,11.42857 1.59297,4.32549 1.14351,9.6798 -1.27929,15.23976 -3.79994,8.72039 -5.44454,54.32083 -2.25852,62.62347 2.41912,6.30408 16.17246,5.71146 27.48241,-1.18422 14.31648,-8.72876 43.76,-7.91508 65.42605,1.80808 9.23223,4.14317 16.77992,8.32174 16.77263,9.28571 -0.0337,4.48406 -18.86105,21.1137 -30.89071,27.28501 -7.35997,3.77574 -19.81034,12.80022 -27.66749,20.05441 -24.05905,22.21279 -64.97643,38.3288 -97.99903,38.5986 -19.55209,0.15974 -30.36648,7.85823 -41.9663,29.87474 -3.62491,6.88009 -4.82032,7.06003 -25.74895,3.8756 l 0,0 z"
       id="path3029"
       inkscape:connector-curvature="0" />
    <path
       style="fill:#0000ff"
       d="m 205.23025,446.82356 c -7.41622,-2.89924 -18.66622,-9.37571 -25,-14.39216 l -11.51596,-9.12081 0,-59.12059 c 0,-61.18216 2.8373,-95.20436 10.39817,-124.68496 2.41814,-9.42857 4.71644,-17.47008 5.10734,-17.87003 0.3909,-0.39994 4.74032,0.67756 9.66538,2.39444 7.61471,2.65451 10.20834,2.2289 17.33293,-2.84426 4.60806,-3.28122 9.9248,-5.96586 11.81497,-5.96586 1.89017,0 19.91807,16.39285 40.06199,36.42857 32.18788,32.01497 38.06157,39.37097 48.4798,60.71428 11.13603,22.81387 11.78297,25.49782 10.67463,44.28572 -1.43148,24.2657 -8.38984,40.93176 -28.30706,67.79861 l -14.76829,19.92132 -5.42032,-6.71711 c -9.00678,-11.1616 -30.34717,-57.02457 -34.97927,-75.17453 -2.39029,-9.36587 -4.34599,-22.00873 -4.34599,-28.09524 0,-6.08651 -0.96428,-10.62858 -2.14286,-10.09348 -1.17857,0.53509 -10.17857,5.16074 -20,10.27922 -16.63498,8.66939 -17.85714,9.97829 -17.85714,19.12456 0,18.50953 6.25913,40.12599 20.09074,69.38522 15.37072,32.51501 15.07473,33.27168 -9.28906,23.74709 l 0,0 z"
       id="path3031"
       inkscape:connector-curvature="0" />
    <path
       style="fill:#0000ff"
       d="m 334.41097,513.22287 c -2.34746,-3.24633 -13.00082,-16.53502 -23.67412,-29.53042 l -19.40602,-23.62801 13.69173,-13.44312 c 19.16777,-18.81974 46.81852,-58.17615 52.34748,-74.50823 l 4.64486,-13.72054 6.34441,13.0587 c 5.51694,11.35552 6.08489,15.71345 4.35464,33.41339 -1.95236,19.97218 -12.9153,56.21927 -24.72249,81.74079 -3.28231,7.09478 -6.72036,17.31416 -7.64011,22.70973 -1.62343,9.52359 -1.79693,9.63772 -5.94038,3.90771 l 0,0 z"
       id="path3033"
       inkscape:connector-curvature="0" />
    <path
       style="fill:#0000ff"
       d="m 369.14111,269.91266 c -9.92114,-19.66889 -15.90016,-48.11677 -19.4727,-92.65021 -0.98138,-12.23342 -2.56182,-21.86704 -3.51208,-21.40805 -0.95027,0.459 -9.9466,5.11483 -19.99184,10.34629 l -18.26409,9.51174 1.75512,24.75345 c 0.96531,13.61439 2.65139,27.96773 3.74684,31.8963 1.49837,5.37355 -4.53531,0.94884 -24.35855,-17.86301 -14.49266,-13.75323 -30.4599,-27.19079 -35.48276,-29.86125 -5.3546,-2.84684 -18.81741,-5.50375 -32.54444,-6.42271 l -23.41196,-1.56731 10.7907,-22.92459 10.79071,-22.92458 21.19268,-8.17694 c 11.65598,-4.49731 25.69269,-10.25268 31.19269,-12.7897 8.17824,-3.77243 23.1427,-4.77537 82.14286,-5.50534 l 72.14285,-0.89258 0,15.20102 c 0,10.64215 -2.09594,19.13825 -6.98866,28.3292 -3.84377,7.2205 -7.85353,20.06741 -8.91059,28.5487 -1.66799,13.38298 -7.91171,39.13099 -23.09987,95.25972 -2.10218,7.76871 -4.7945,15.02356 -5.98294,16.12191 -1.18843,1.09835 -6.46873,-6.54358 -11.73397,-16.98206 l 0,0 z"
       id="path3035"
       inkscape:connector-curvature="0" />
    <path
       style="fill:#0000ff"
       d="m 170.74533,855.93361 c -2.25598,-4.32143 -10.06443,-18.4819 -17.35212,-31.46772 -7.2877,-12.98581 -13.25035,-24.23581 -13.25035,-25 0,-0.76418 13.82143,-1.38225 30.71428,-1.37349 30.58148,0.0159 52.14286,3.57685 52.14286,8.61169 0,7.46584 -16.19959,35.23416 -26.51103,45.44354 -13.7882,13.65172 -20.10809,14.58116 -25.74364,3.78598 z"
       id="path3037"
       inkscape:connector-curvature="0" />
    <path
       style="fill:none;stroke:#000000;stroke-width:1px;stroke-linecap:butt;stroke-linejoin:miter;stroke-opacity:1"
       d="m 62.857143,69.50504 -31.428572,680 c 5.714286,6.66667 11.428572,13.33333 17.142858,20 0,0.95238 -0.673435,2.18371 0,2.85714 0.673435,0.67344 2.183707,-0.67343 2.857142,0 1.34687,1.34687 -0.851835,4.01062 0,5.71429 1.204678,2.40935 4.509609,3.30493 5.714286,5.71428 0.425918,0.85184 -0.673435,2.18371 0,2.85715 0.673435,0.67343 2.183708,-0.67344 2.857143,0 0.673435,0.67343 -0.301169,1.95363 0,2.85714 0.673435,2.0203 2.183708,3.69398 2.857143,5.71429 0.301169,0.9035 -0.425918,2.0053 0,2.85714 1.204677,2.40935 4.86245,3.15878 5.714286,5.71428 0.602338,1.80702 -0.602339,3.90727 0,5.71429 0.851835,2.55551 4.509608,3.30493 5.714285,5.71429 0.851836,1.70367 -1.34687,4.36741 0,5.71428 0.673435,0.67344 2.183708,-0.67343 2.857143,0 0.673435,0.67344 0.952381,2.85714 0,2.85714 -0.952381,0 -0.952381,-2.85714 0,-2.85714 1.34687,0 2.254804,1.65247 2.857143,2.85714 0.425918,0.85184 -0.673435,2.18371 0,2.85715 0.673435,0.67343 2.005307,-0.42592 2.857143,0 1.204677,0.60234 1.736479,2.11003 2.857143,2.85714 14.433734,9.62249 0.06619,0.0221 8.571428,2.85714 2.020305,0.67344 3.809524,1.90476 5.714286,2.85715 6.58757,3.29378 12.76785,6.76339 20,8.57142 2.98964,0.74741 8.67964,-0.9163 11.42857,0 2.02031,0.67344 3.64828,2.34065 5.71429,2.85715 1.84789,0.46197 3.80952,0 5.71428,0 0.95238,0 2.00531,-0.42592 2.85715,0 1.20467,0.60234 1.65246,2.2548 2.85714,2.85714 0.85183,0.42592 2.00531,-0.42592 2.85714,0 3.42857,1.71429 5.14286,6.85714 8.57143,8.57143 0.85184,0.42592 2.00531,-0.42592 2.85714,0 1.20468,0.60234 1.65247,2.2548 2.85715,2.85714 0.85183,0.42592 2.0053,-0.42592 2.85714,0 11.89074,5.94537 -3.05439,-0.19724 2.85714,5.71429 0.67344,0.67343 2.00531,-0.42592 2.85714,0 1.20468,0.60234 1.90477,1.90476 2.85715,2.85714 0.95238,0.95238 2.2548,1.65247 2.85714,2.85714 0.42592,0.85184 -0.42592,2.00531 0,2.85715 1.71429,3.42857 6.85714,5.14285 8.57143,8.57142 0.42592,0.85184 -0.42592,2.00531 0,2.85715 0.3793,0.7586 7.81282,8.19212 8.57143,8.57143 0.85183,0.42591 2.0053,-0.42592 2.85714,0 2.40935,1.20467 3.30493,4.5096 5.71429,5.71428 1.70367,0.85184 4.36741,-1.34687 5.71428,0 0.67344,0.67344 -0.67343,2.18371 0,2.85714 1.34687,1.34687 4.01062,-0.85183 5.71429,0 1.20467,0.60234 1.65246,2.25481 2.85714,2.85715 0.85184,0.42591 2.18371,-0.67344 2.85714,0 0.67344,0.67343 -0.67343,2.1837 0,2.85714 0.67344,0.67343 2.18371,-0.67344 2.85715,0 0.67343,0.67343 -0.67344,2.18371 0,2.85714 0.67343,0.67344 2.1837,-0.67343 2.85714,0 0.67343,0.67344 -0.67344,2.18371 0,2.85715 0.67343,0.67343 2.00531,-0.42592 2.85714,0 1.20468,0.60233 1.65247,2.2548 2.85714,2.85714 0.85184,0.42592 2.00531,-0.42592 2.85715,0 1.20467,0.60234 1.65246,2.2548 2.85714,2.85714 0.85184,0.42592 2.00531,-0.42592 2.85714,0 1.20468,0.60234 1.65247,2.25481 2.85715,2.85714 0.85183,0.42592 2.0053,-0.42591 2.85714,0 1.20468,0.60234 1.57939,2.43123 2.85714,2.85715 0.0129,0.004 8.5687,-0.003 8.57143,0 0.67344,0.67343 -0.67344,2.1837 0,2.85714 1.34687,1.34687 4.01061,-0.85184 5.71429,0 1.20467,0.60234 1.65246,2.2548 2.85714,2.85714 0.58608,0.29304 8.1685,0.40293 8.57143,0 3.80952,-3.80952 -4.76191,-2.85714 2.85714,-2.85714"
       id="path3039"
       inkscape:connector-curvature="0" />
    <path
       style="fill:none;stroke:#000000;stroke-width:1px;stroke-linecap:butt;stroke-linejoin:miter;stroke-opacity:1"
       d="m 280,929.50504 c 7.71499,-0.20999 11.44031,-10.48402 17.14286,-14.28571 1.77192,-1.18129 3.94236,-1.67586 5.71428,-2.85715 1.12067,-0.74711 1.73648,-2.11003 2.85715,-2.85714 14.43373,-9.62249 0.0662,-0.0221 8.57142,-2.85714 2.02031,-0.67344 3.80953,-1.90477 5.71429,-2.85715 1.90476,-0.95238 3.94236,-1.67586 5.71429,-2.85714 1.12066,-0.74711 1.57939,-2.43122 2.85714,-2.85714 1.80701,-0.60234 3.86639,0.46197 5.71428,0 13.79699,-3.44925 -0.1416,-1.35777 8.57143,-5.71429 0.85184,-0.42592 1.95364,0.30117 2.85715,0 2.0203,-0.67343 3.69398,-2.18371 5.71428,-2.85714 0.90351,-0.30117 1.95364,0.30117 2.85714,0 2.02031,-0.67344 3.64829,-2.34064 5.71429,-2.85714 1.84789,-0.46198 3.8664,0.46197 5.71429,0 5.67396,-1.41849 11.46889,-7.15294 17.14285,-8.57143 1.84789,-0.46197 3.8664,0.46197 5.71429,0 2.066,-0.5165 3.69398,-2.18371 5.71428,-2.85714 0.90351,-0.30117 1.95364,0.30116 2.85715,0 2.0203,-0.67344 3.64828,-2.34065 5.71428,-2.85715 1.84789,-0.46197 3.90727,0.60234 5.71429,0 1.27775,-0.42592 1.73648,-2.11003 2.85714,-2.85714 1.77193,-1.18128 3.94236,-1.67586 5.71429,-2.85714 1.12066,-0.74711 1.73648,-2.11004 2.85714,-2.85715 1.77192,-1.18128 3.94236,-1.67586 5.71429,-2.85714 3.36199,-2.24133 5.33894,-6.14706 8.57142,-8.57143 1.70368,-1.27775 4.01062,-1.57939 5.71429,-2.85714 2.15499,-1.61624 3.55929,-4.09804 5.71429,-5.71429 1.70367,-1.27775 3.94236,-1.67586 5.71428,-2.85714 4.20421,-2.80281 7.22436,-8.62576 11.42857,-11.42857 1.77193,-1.18128 4.20844,-1.3513 5.71429,-2.85714 0.67343,-0.67344 -0.67344,-2.18371 0,-2.85715 1.50585,-1.50584 3.94236,-1.67586 5.71428,-2.85714 1.12067,-0.74711 1.65247,-2.2548 2.85715,-2.85714 0.85183,-0.42592 2.0053,0.42592 2.85714,0 2.53239,-1.2662 5.97053,-6.8375 8.57143,-8.57143 1.77192,-1.18128 3.94236,-1.67586 5.71428,-2.85714 2.6009,-1.73394 6.03904,-7.30523 8.57143,-8.57143 0.85184,-0.42592 2.00531,0.42592 2.85715,0 1.20467,-0.60234 1.90476,-1.90476 2.85714,-2.85714 0.95238,-0.95239 2.11003,-1.73648 2.85714,-2.85715 1.18128,-1.77192 1.67586,-3.94236 2.85714,-5.71428 4.54438,-6.81657 1.16991,1.10228 5.71429,-5.71429 0.95238,-1.90476 1.90476,-3.80952 2.85714,-5.71428 0,-0.95239 -0.42591,-2.00531 0,-2.85715 7.21611,-14.43221 -1.50182,8.71793 5.71429,-5.71428 0.42592,-0.85184 -0.42592,-2.00531 0,-2.85715 5.94537,-11.89074 -0.19725,3.05439 5.71428,-2.85714 5.91153,-5.91153 -9.0336,0.23109 2.85715,-5.71428 0.85183,-0.42592 2.1837,0.67343 2.85714,0 0.67344,-0.67344 -0.67344,-2.18371 0,-2.85715 0.67344,-0.67343 2.00531,0.42592 2.85714,0 1.20468,-0.60234 1.65247,-2.2548 2.85715,-2.85714 0.85183,-0.42592 1.90476,0 2.85714,0 0.95238,0 1.90476,0 2.85714,0 5.71429,0 11.42857,0 17.14286,0 0.95238,0 1.90476,0 2.85714,0 0.95238,0 2.00531,0.42592 2.85714,0 1.20468,-0.60234 1.65247,-2.2548 2.85715,-2.85714 0.85183,-0.42592 2.1837,0.67343 2.85714,0 0.67344,-0.67344 -0.67344,-2.18371 0,-2.85715 1.34687,-1.34687 4.01061,0.85184 5.71429,0 9.47595,-9.47595 -2.69374,1.34687 5.71428,-2.85714 2.40936,-1.20468 3.30493,-4.50961 5.71429,-5.71428 0.85183,-0.42592 2.1837,0.67343 2.85714,0 0.67344,-0.67344 -0.67344,-2.18371 0,-2.85715 0.67344,-0.67343 2.18371,0.67344 2.85714,0 0.67344,-0.67343 -0.67343,-2.18371 0,-2.85714 0.67344,-0.67344 2.18371,0.67343 2.85715,0 0.67343,-0.67344 -0.42592,-2.00531 0,-2.85714 0.60233,-1.20468 2.2548,-1.65247 2.85714,-2.85715 0.42592,-0.85183 -0.42592,-2.0053 0,-2.85714 0.60234,-1.20468 2.2548,-1.65246 2.85714,-2.85714 0.42592,-0.85184 -0.67343,-2.18371 0,-2.85714 0.67344,-0.67344 2.43123,0.85183 2.85714,0 0.85184,-1.70368 -0.60233,-3.90727 0,-5.71429 0.85184,-2.55551 4.50961,-3.30493 5.71429,-5.71429 0.42592,-0.85183 -0.67344,-2.1837 0,-2.85714 0.67344,-0.67343 2.18371,0.67344 2.85714,0 1.34687,-1.34687 -0.85183,-4.01061 0,-5.71428 0.60234,-1.20468 2.25481,-1.65247 2.85715,-2.85715 0.42591,-0.85183 -0.67344,-2.18371 0,-2.85714 0.67343,-0.67344 2.1837,0.67343 2.85714,0 1.34687,-1.34687 -0.85184,-4.01062 0,-5.71429 0.60234,-1.20467 2.2548,-1.65246 2.85714,-2.85714 0.42592,-0.85183 -0.67343,-2.18371 0,-2.85714 0.67344,-0.67344 2.18371,0.67343 2.85714,0 1.90099,-1.90099 -1.90099,-3.8133 0,-5.71429 0.67344,-0.67343 2.18371,0.67344 2.85715,0 1.34687,-1.34687 -1.34687,-4.36741 0,-5.71428 0.67343,-0.67344 2.0053,0.42591 2.85714,0 11.89074,-5.94538 -3.05439,0.19724 2.85714,-5.71429 0.67344,-0.67343 2.18371,0.67344 2.85715,0 0.67343,-0.67343 -0.67344,-2.18371 0,-2.85714 0.67343,-0.67344 2.1837,0.67343 2.85714,0 0.67343,-0.67344 0,-1.90476 0,-2.85714 0.95238,0 2.18371,0.67343 2.85714,0 0.67344,-0.67344 -0.67343,-2.18371 0,-2.85715 0.67344,-0.67343 2.18371,0.67344 2.85714,0 0.67344,-0.67343 -0.67343,-2.18371 0,-2.85714 0.67344,-0.67344 2.18371,0.67343 2.85715,0 0.67343,-0.67344 -0.67344,-2.18371 0,-2.85714 0.67343,-0.67344 2.1837,0.67343 2.85714,0 1.34687,-1.34687 -1.34687,-4.36742 0,-5.71429 0.67344,-0.67343 2.18371,0.67344 2.85714,0 0.67344,-0.67343 -0.42591,-2.00531 0,-2.85714 0.3793,-0.7586 7.81283,-8.19213 8.57143,-8.57143 0.58608,-0.29304 8.1685,-0.40293 8.57143,0 0.67344,0.67343 -0.67344,2.18371 0,2.85714 0.67344,0.67344 2.18371,-0.67343 2.85714,0 0.0919,0.0919 0,7.8785 0,8.57143 0,14.28572 0,28.57143 0,42.85714 0,0.95238 0,1.90477 0,2.85715 0,0.95238 -0.67343,2.1837 0,2.85714 0.67344,0.67343 2.18371,-0.67344 2.85715,0 1.42857,1.42857 -1.42858,7.14286 0,8.57143 0.67343,0.67343 2.1837,-0.67344 2.85714,0 1.34687,1.34687 -0.85184,4.01061 0,5.71428 0.60234,1.20468 2.2548,1.65247 2.85714,2.85715 0.85184,1.70367 -1.34687,4.36741 0,5.71428 0.67344,0.67344 2.18371,-0.67343 2.85714,0 0.67344,0.67344 -0.42591,2.00531 0,2.85715 0.60234,1.20467 2.25481,1.65246 2.85715,2.85714 0.42591,0.85183 -0.67344,2.18371 0,2.85714 0.67343,0.67344 2.85714,-0.95238 2.85714,0 0,0.95238 -3.80952,0 -2.85714,0 1.90476,0 4.01061,0.85184 5.71428,0 0.85184,-0.42592 -0.42591,-2.00531 0,-2.85714 1.20468,-2.40936 4.50961,-3.30493 5.71429,-5.71429 0.85183,-1.70367 -0.85184,-4.01061 0,-5.71428 0.60234,-1.20468 2.2548,-1.65247 2.85714,-2.85715 0.42592,-0.85183 -0.42592,-2.0053 0,-2.85714 0.60234,-1.20468 2.25481,-1.65246 2.85714,-2.85714 0.42592,-0.85184 -0.67343,-2.18371 0,-2.85714 0.67344,-0.67344 2.18371,0.67343 2.85715,0 0.67343,-0.67344 -0.67344,-2.18371 0,-2.85715 0.67343,-0.67343 2.1837,-0.67343 2.85714,0 0.67344,0.67344 -0.67344,2.18371 0,2.85715 0.67344,0.67343 2.18371,-0.67344 2.85714,0 0.67344,0.67343 -0.67343,2.1837 0,2.85714 0.0919,0.0919 7.8785,0 8.57143,0 l 0,-645.714287 L 60,66.647897"
       id="path3041"
       inkscape:connector-curvature="0" />
    <path
       style="fill:#ff7f2a"
       d="m 145.71304,640.52981 c -5.57925,-2.9034 -18.4364,-6.11051 -28.57143,-7.12688 -10.13503,-1.0164 -23.197533,-4.2378 -29.027787,-7.15866 -7.094334,-3.55414 -16.780652,-5.31066 -29.285714,-5.31066 l -18.685252,0 0.165202,-16.42857 C 40.760335,559.52841 64.90718,72.359765 66.776874,70.490071 68.683557,68.583387 597.45649,55.813743 692.28571,55.384297 l 36.42858,-0.164972 0,99.807465 c 0,98.8924 -0.0552,99.82493 -6.00189,101.71239 -7.41237,2.35259 -9.08423,0.55939 -15.46491,-16.58731 -4.60163,-12.36588 -20.68995,-30.64683 -26.97103,-30.64683 -1.38857,0 -5.32692,-4.5341 -8.75186,-10.07578 -9.32403,-15.08658 -13.72274,-18.49565 -23.86491,-18.49565 -10.53155,0 -35.79115,16.93042 -42.80543,28.69062 -2.38229,3.99413 -11.32937,15.79946 -19.88246,26.23408 -8.55309,10.43462 -18.38629,23.55955 -21.8516,29.16652 -4.91857,7.9584 -8.1484,10.1945 -14.72503,10.1945 -4.63348,0 -16.29588,3.31302 -25.91648,7.36227 -9.6206,4.04925 -19.76812,6.76706 -22.55003,6.03957 -2.78192,-0.72749 -9.15966,1.17163 -14.17272,4.22026 -5.01308,3.04863 -9.65468,5.00296 -10.31471,4.34295 -1.79043,-1.79044 10.35463,-55.93723 15.50083,-69.10791 5.57154,-14.25928 16.81811,-31.15972 38.60885,-58.0182 9.31506,-11.48144 16.35826,-21.45358 15.65152,-22.16032 -0.70674,-0.70674 -9.92563,2.25859 -20.48643,6.58962 -17.40709,7.13873 -21.01066,10.1553 -38.56134,32.28013 -25.71683,32.41927 -33.15706,45.73003 -39.85903,71.30877 -9.44049,36.03062 -20.43603,89.81146 -20.48223,100.18166 -0.0903,20.2596 -4.33597,16.79411 -22.27829,-18.18423 -17.31817,-33.76163 -20.43928,-45.21242 -15.15688,-55.60763 1.3866,-2.72868 3.83354,-10.10409 5.43766,-16.3898 1.60408,-6.28572 6.71097,-24.93738 11.3486,-41.44815 4.63762,-16.51077 9.37194,-37.54214 10.52068,-46.73638 1.14874,-9.19424 5.19312,-22.55549 8.98746,-29.69167 5.35977,-10.08035 6.8988,-17.3417 6.8988,-32.54934 l 0,-19.574462 L 358,98.201868 c -58.59632,0.09989 -75.89766,1.007466 -85,4.458882 -6.28571,2.3834 -15.92857,5.67124 -21.42857,7.30631 -5.5,1.63506 -15.98928,6.31611 -23.30951,10.40232 -11.99289,6.69453 -14.60094,10.1618 -26.36428,35.04998 -12.53261,26.51573 -13.4859,27.69802 -23.83335,29.55854 -5.92822,1.06592 -23.63572,10.21374 -39.35,20.32849 C 123,215.42115 103.49989,227.63745 95.380706,232.45374 78.140169,242.6808 75.192871,246.7211 64.584583,274.67063 c -11.471834,30.22471 -9.911997,50.633 6.481186,84.7973 22.556585,47.0092 63.038751,97.27465 88.050691,109.32985 11.43171,5.50983 12.39028,11.08706 12.39817,72.13583 0.005,42.47752 -0.76896,49.99952 -7.8257,76.00897 l -7.83179,28.86612 -10.1441,-5.27889 z"
       id="path3043"
       inkscape:connector-curvature="0" />
    <path
       style="fill:#ff7f2a"
       d="m 255.85714,923.47024 c -7.85714,-2.93957 -17.5,-7.94129 -21.42857,-11.11491 -3.92857,-3.17363 -13.8337,-9.09292 -22.01139,-13.15395 -8.1777,-4.06103 -18.28425,-11.86191 -22.459,-17.33528 l -7.59046,-9.9516 6.74471,-4.7222 c 17.28475,-12.1016 39.60186,-43.58363 39.60186,-55.86509 0,-2.67226 1.81085,-5.55354 4.02412,-6.40286 2.21327,-0.84931 5.63563,-5.6304 7.60525,-10.62462 7.42488,-18.82672 23.28144,-30.43812 41.80017,-30.60935 31.13599,-0.28785 77.22386,-18.26094 97.99903,-38.21711 7.07143,-6.79266 19.4599,-15.85994 27.52994,-20.14954 17.28414,-9.18729 36.14756,-28.04446 34.82772,-34.81618 -0.53437,-2.74171 -8.81912,-8.16957 -19.50052,-12.77602 -24.7155,-10.65875 -56.10344,-11.43343 -75.7869,-1.87046 -11.25645,5.4688 -13.45453,5.76791 -15.74697,2.14286 -3.17023,-5.01315 -3.28675,-41.81795 -0.15771,-49.82055 2.02786,-5.18637 2.58969,-4.97183 7.4826,2.85715 10.39818,16.63777 24.66576,32.75022 29.00033,32.75022 6.28398,0 35.44659,-15.98471 44.53162,-24.4088 10.4165,-9.65874 29.56094,-38.26128 38.79902,-57.96728 8.86265,-18.90517 10.94202,-45.39472 12.41952,-158.21492 0.83598,-63.83198 1.21623,-67.98261 6.60135,-72.05199 3.14285,-2.37497 7.20157,-4.35902 9.01937,-4.409 3.28697,-0.0904 20.0554,-7.93027 60.98063,-28.51085 l 21.42857,-10.77605 0.77583,53.84399 c 0.42671,29.61419 -0.31597,88.89758 -1.65043,131.74087 -2.31957,74.46998 -2.74854,78.65106 -9.75114,95.03975 -20.17812,47.22426 -28.11983,67.81523 -34.81623,90.27037 -4.02763,13.50583 -10.0382,28.00791 -13.3568,32.22686 -15.88126,20.18974 12.1114,21.41563 30.72788,1.34565 9.27746,-10.0018 19.58255,-32.45928 26.67349,-58.1286 3.47274,-12.57142 11.89288,-35.07142 18.71143,-50 21.19457,-46.40371 21.05665,-45.22531 23.06254,-197.04971 l 1.79429,-135.80743 11.40488,-15 c 11.93826,-15.7015 15.52406,-17.81324 18.23806,-10.74066 0.89894,2.34263 7.84037,8.8149 15.4254,14.3828 10.25431,7.52737 15.0406,13.57889 18.66408,23.59781 2.68023,7.41089 8.14832,16.50814 12.15126,20.21612 6.12617,5.67476 9.46083,6.53205 21.06929,5.41663 7.58517,-0.72884 16.12943,-3.44121 18.98723,-6.0275 2.85782,-2.58629 6.05908,-4.70234 7.11391,-4.70234 1.05483,0 1.91789,94.11428 1.91789,209.14286 0,162.66665 -0.76192,208.38094 -3.42858,205.71428 -6.27025,-6.27026 -11.12097,-3.55851 -16.86577,9.42857 -3.12805,7.07143 -6.77328,12.85715 -8.10054,12.85715 -6.20043,0 -12.77557,-25.61852 -14.29946,-55.71429 -1.57523,-31.11003 -1.66545,-31.4372 -8.90094,-32.2798 -5.90446,-0.6876 -10.2838,2.60769 -22.78231,17.14286 -8.51003,9.89674 -16.22726,18.63694 -17.14943,19.42265 -0.92215,0.78572 -8.47226,14.28572 -16.77803,30 -8.30577,15.71429 -17.87066,31.58163 -21.25532,35.26075 -9.55962,10.39134 -27.10394,17.5964 -42.84725,17.5964 -12.8646,0 -15.2186,1.07977 -25.17763,11.54888 -6.0424,6.35189 -10.98617,13.17206 -10.98617,15.15595 0,5.37094 -16.32389,21.973 -35.71429,36.32288 -9.42857,6.9776 -20.35714,15.62172 -24.28571,19.20912 -32.40968,29.59508 -54.10158,41.59457 -100,55.31785 -23.78467,7.11146 -60.46976,25.20303 -68.50301,33.78292 -9.77162,10.43651 -18.83433,11.82563 -35.78271,5.48474 l 0,0 z"
       id="path3045"
       inkscape:connector-curvature="0" />
    <path
       style="fill:#ff7f2a"
       d="m 388.20111,601.64943 c -7.68595,-9.0265 -15.97736,-24.83174 -17.96986,-34.25448 -2.65994,-12.5791 -5.61593,-13.64 -17.51482,-6.28608 l -10.17935,6.29118 2.02044,-13.9475 c 1.11125,-7.67113 3.30141,-15.55465 4.86702,-17.51894 1.93411,-2.42662 1.81859,-3.57143 -0.36041,-3.57143 -5.57928,0 -3.6524,-25.06885 2.91659,-37.94513 9.71582,-19.04459 25.30499,-69.46727 25.30499,-81.84821 0,-6.21389 1.10947,-11.98367 2.46548,-12.82173 1.356,-0.83806 10.66083,15.47891 20.67739,36.25995 l 18.21192,37.78369 0.97072,39.49139 0.97072,39.49138 -10.12331,21.31682 c -5.56783,11.72425 -11.8953,23.84668 -14.06105,26.93873 -3.73485,5.33223 -4.15716,5.3642 -8.19647,0.62036 l 0,0 z"
       id="path3047"
       inkscape:connector-curvature="0" />
    <path
       style="fill:#ff7f2a"
       d="M 142.58905,389.50504 C 115.17218,350.30173 99.269497,317.85411 97.849178,298.2184 c -0.931697,-12.88058 0.591152,-20.46315 7.933512,-39.50252 5.11087,-13.25292 11.80285,-25.46513 15.29478,-27.91146 28.22916,-19.7764 28.96739,-20.0243 45.7521,-15.36359 10.04635,2.78964 10.80758,3.69258 9.01923,10.69835 -9.32716,36.53871 -10.69776,49.51407 -12.42765,117.65157 l -1.84972,72.85715 -18.98238,-27.14286 z"
       id="path3049"
       inkscape:connector-curvature="0" />
    <path
       style="fill:#ff7f2a"
       d="M 131.57143,842.32973 C 95.00144,835.34546 81.006406,825.28795 66.017246,795.21933 55.114235,773.34761 52.534925,769.34259 43.049514,759.55613 l -9.191247,-9.48296 2.091989,-58.8555 c 1.150595,-32.37052 2.886056,-58.81338 3.856581,-58.76192 0.970526,0.0515 7.667786,7.61457 14.882801,16.80691 13.005262,16.56944 26.507685,41.75663 41.395262,77.21801 4.2496,10.12231 13.89751,27.44994 21.43981,38.50585 9.03757,13.24776 12.61503,20.7804 10.49228,22.09233 -2.33427,1.44266 -2.36266,3.03381 -0.10314,5.77986 4.14389,5.03616 26.51472,48.43249 26.51472,51.43489 0,1.29487 -0.96428,2.18075 -2.14286,1.96863 -1.17857,-0.21212 -10.5,-1.98174 -20.71428,-3.9325 z"
       id="path3051"
       inkscape:connector-curvature="0" />
    <path
       style="fill:none;stroke:#000000;stroke-width:1px;stroke-linecap:butt;stroke-linejoin:miter;stroke-opacity:1"
       d="m 31.428571,746.6479 2.857143,168.57143 697.142856,0 -2.85714,-234.28572"
       id="path3055"
       inkscape:connector-curvature="0" />
    <path
       style="fill:#008000"
       d="m 36.245497,899.10627 c -3.044661,-22.21323 -2.179473,-142.53521 1.002037,-139.3537 4.369225,4.36923 20.686709,32.2283 29.719577,50.74066 7.578783,15.5323 9.476809,17.29894 27.091323,25.21606 10.417856,4.68248 26.012996,9.79512 34.655856,11.36142 21.89179,3.96736 38.81103,15.50754 56.64784,38.63803 5.05472,6.55489 14.94823,14.7053 21.98557,18.11202 7.03733,3.40672 12.79516,6.72219 12.79516,7.36773 0,0.64553 -40.9681,1.17369 -91.04022,1.17369 l -91.040217,0 -1.816926,-13.25591 z"
       id="path3057"
       inkscape:connector-curvature="0" />
    <path
       style="fill:#d35f5f"
       d="m 327.28571,903.40214 c 23.56059,-10.31386 45.13346,-18.15808 67.92408,-24.6982 15.79546,-4.53275 39.38606,-20.13124 70.09126,-46.34548 6.43984,-5.49795 19.55701,-15.78199 29.14926,-22.85342 9.93648,-7.32519 21.9049,-19.61841 27.81654,-28.57143 15.61684,-23.65128 22.39737,-28.56381 39.43097,-28.56794 11.23221,-0.003 17.76691,-2.05229 29.61701,-9.2892 15.41077,-9.41146 20.4152,-16.23466 39.29143,-53.57143 4.36951,-8.64286 13.18831,-21.5 19.59725,-28.57143 6.40898,-7.07143 13.92055,-16.47268 16.69238,-20.89168 8.70588,-13.87926 11.7,-8.18722 13.36342,25.40486 1.2214,24.66602 2.933,34.04365 8.17178,44.77254 8.55765,17.52579 14.83511,17.74466 22.80237,0.79501 8.6426,-18.38633 13.389,-14.76757 15.64565,11.92858 1.00935,11.94049 1.83518,59.44458 1.83518,105.56463 l 0,83.85463 L 518,912.25975 l -210.71429,-0.10243 20,-8.75518 z"
       id="path3059"
       inkscape:connector-curvature="0" />
    <path
       style="fill:#4d4d4d"
       d="m 502.58075,702.41913 c -0.7544,-0.7544 2.72163,-10.07583 7.72451,-20.71429 5.00287,-10.63846 11.33316,-27.6998 14.06729,-37.91409 2.73414,-10.21428 10.55031,-30.78571 17.36926,-45.71428 20.83203,-45.60709 20.81352,-45.45514 23.0409,-189.03727 l 1.99582,-128.65489 -16.57717,8.84608 c -9.11745,4.86534 -18.07497,8.84608 -19.90561,8.84608 -1.83064,0 -7.74414,3.2578 -13.14111,7.23956 -5.39697,3.98176 -16.89676,9.83025 -25.55509,12.99665 -8.65832,3.16639 -18.7923,8.06829 -22.51994,10.89309 l -6.77754,5.13602 -2.56485,102.58162 -2.56484,102.58163 -12.75416,25.71429 c -7.01479,14.14285 -17.22372,31.73354 -22.68651,39.0904 -11.53146,15.52971 -46.68242,38.1128 -55.14334,35.4274 -2.90128,-0.92083 -11.21129,-10.63795 -18.46669,-21.59358 l -13.19162,-19.91934 4.74925,-14.15237 c 3.07338,-9.15837 7.42534,-15.7378 12.33295,-18.64529 11.0956,-6.57357 12.83371,-5.76054 16.35455,7.64992 1.75342,6.67857 7.81926,18.40846 13.47964,26.06643 l 10.29161,13.92357 5.65388,-8.20929 c 3.10963,-4.51511 10.05357,-17.173 15.43097,-28.12868 C 422.86196,557.09033 423,556.27395 423,518.90481 c 0,-37.04654 -0.23411,-38.47077 -10.34553,-62.93774 -5.69004,-13.7684 -15.3329,-34.9692 -21.42857,-47.1129 l -11.08304,-22.07943 0,-36.73009 c 0,-20.20155 0.80273,-37.53282 1.78385,-38.51394 1.64683,-1.64683 21.81441,34.10095 35.66174,63.21178 3.23896,6.80918 6.32542,11.94392 6.85879,11.41055 0.53337,-0.53337 2.2608,-11.89023 3.83872,-25.23746 4.58532,-38.78601 20.09608,-105.58149 29.00583,-124.91062 4.50909,-9.78218 17.79595,-29.84143 29.52634,-44.5761 16.45018,-20.66323 24.08831,-27.89478 33.39728,-31.61949 6.6381,-2.65604 12.64153,-4.25692 13.34094,-3.5575 0.69942,0.69941 -7.84032,13.27349 -18.97718,27.94238 -23.15494,30.49847 -28.43165,42.82326 -38.25064,89.34176 l -7.04982,33.39926 6.14636,-3.9848 c 13.07045,-8.47383 20.43983,-11.37816 30.83862,-12.15373 5.93414,-0.44258 13.68804,-2.83503 17.23091,-5.31655 3.54286,-2.48152 12.67492,-5.33874 20.29347,-6.34937 14.86968,-1.97253 15.84014,-2.97789 57.78336,-59.86139 13.67554,-18.54683 36.39468,-35.47868 47.60523,-35.47868 6.16617,0 9.73785,2.58378 15.40074,11.14101 4.05503,6.12755 13.6024,16.39389 21.21637,22.81409 9.51826,8.02593 15.40452,15.92683 18.83949,25.28757 6.11245,16.65731 11.39057,21.63372 18.76143,17.68896 4.52842,-2.42355 5.3196,-1.785 5.3196,4.29342 0,14.54499 -30.29675,27.02618 -45.65338,18.80756 -2.90271,-1.55349 -7.52791,-8.94635 -10.2782,-16.42857 -3.46217,-9.41895 -11.13411,-19.65085 -24.93842,-33.25982 l -19.93792,-19.65578 -9.64208,11.08436 c -19.01546,21.85976 -18.6497,19.77685 -18.4388,105.0062 0.10549,42.62869 -0.85288,106.4694 -2.1297,141.86823 l -2.32149,64.36155 -10.86081,24.20988 c -5.97345,13.31546 -17.12634,42.75949 -24.7842,65.4312 -7.65787,22.67169 -17.11478,46.66694 -21.01535,53.32277 -9.21287,15.72057 -30.02132,28.7676 -36.13319,22.65575 l 0,0 z m -0.93372,-398.07658 c -0.87968,-0.87968 -3.18512,-0.002 -5.12322,1.95081 -2.80076,2.82176 -2.47258,3.14994 1.59941,1.59941 2.81778,-1.07294 4.40349,-2.67054 3.52381,-3.55022 z"
       id="path3061"
       inkscape:connector-curvature="0" />
    <path
       style="fill:#4d4d4d"
       d="m 305.14609,544.8029 c -5.10892,-7.39737 -14.4318,-19.36817 -20.71752,-26.60177 -6.28571,-7.2336 -16.37267,-19.67812 -22.41546,-27.65449 l -10.9869,-14.50254 -26.15596,1.34423 c -15.31362,0.787 -31.1895,-0.0218 -38.29882,-1.95109 l -12.14286,-3.29531 0,-20.14386 0,-20.14385 8.70692,7.32639 c 8.67774,7.30183 32.66151,16.03872 44.02818,16.03872 5.55602,0 5.01518,-1.99092 -7.56747,-27.85715 -14.34208,-29.48309 -22.31049,-55.25143 -22.31049,-72.14794 0,-9.56979 1.02271,-10.73468 15.77759,-17.97115 8.67767,-4.25593 16.39195,-7.73805 17.14285,-7.73805 0.7509,0 1.36528,4.22987 1.36528,9.39972 0,5.16984 1.90725,16.72214 4.23833,25.67178 4.51173,17.32168 28.54505,67.5025 37.79367,78.91196 l 5.54505,6.8406 16.55491,-22.55489 c 24.31358,-33.12552 28.24494,-43.33072 28.50068,-73.98346 0.19183,-22.9928 -0.65376,-27.37741 -7.98968,-41.42857 -13.41026,-25.6859 -25.90344,-40.78499 -60.25442,-72.8226 l -32.5682,-30.37488 -11.0203,7.29289 c -9.89455,6.5479 -11.9576,6.9391 -20.19588,3.82949 -10.64316,-4.01735 -10.80693,-4.88082 -4.34503,-22.90977 5.50095,-15.34787 9.69381,-17.62382 30.88373,-16.76413 28.00679,1.13626 33.99824,4.40078 67.7199,36.89799 l 31.71695,30.5653 -1.95549,-12.85714 c -1.07552,-7.07143 -2.70867,-23.14286 -3.62923,-35.71429 l -1.67375,-22.85714 16.11696,-7.85715 c 8.86433,-4.32142 16.73134,-7.85714 17.48224,-7.85714 0.7509,0 1.36703,4.82143 1.36918,10.71429 0.002,5.89285 1.92896,21.64285 4.28181,35 2.35284,13.35714 4.27966,28.22679 4.28181,33.04366 0.002,4.8199 5.74742,19.7343 12.77711,33.16866 11.42203,21.82849 12.47985,25.4336 10,34.08034 -1.52527,5.31829 -2.81333,22.53524 -2.86238,38.2599 l -0.0892,28.59029 -6.92749,-11.27682 c -4.49657,-7.31966 -7.36258,-9.82616 -8.16736,-7.14285 -10.57303,35.25251 -52.33461,94.28893 -71.13079,100.55433 -3.05468,1.01823 16.40332,27.50263 41.23465,56.12474 14.76704,17.0214 14.32986,24.75578 -2.08173,36.82872 l -12.74248,9.37383 -9.28894,-13.4498 0,0 z"
       id="path3063"
       inkscape:connector-curvature="0" />
    <path
       style="fill:#4d4d4d"
       d="m 152.71439,461.42015 c -26.2728,-19.0625 -65.833447,-72.26636 -83.044321,-111.6837 -12.546089,-28.73377 -12.696085,-45.73047 -0.68124,-77.19416 6.397305,-16.75284 11.340369,-25.03139 17.857142,-29.90681 8.68232,-6.49553 25.752419,-15.98758 28.751379,-15.98758 0.7989,0 -1.55325,6.10714 -5.227,13.57143 -19.310216,39.23428 -20.210987,61.32985 -3.90039,95.67533 9.21215,19.39817 35.67495,60.86741 50.61951,79.32467 3.18091,3.92857 5.81206,9.31697 5.847,11.97423 0.0349,2.65726 1.34924,5.626 2.92067,6.59719 3.46236,2.13986 3.86536,35.71429 0.42868,35.71429 -1.33565,0 -7.44279,-3.6382 -13.57143,-8.08489 z"
       id="path3065"
       inkscape:connector-curvature="0" />
    <path
       style="fill:#4d4d4d"
       d="m 125.97374,218.79075 c 0.16318,-2.99898 37.38483,-25.85481 48.30529,-29.66171 10.85841,-3.78526 13.60792,-1.78963 9.38104,6.80888 -1.73694,3.53334 -3.99788,9.4101 -5.02433,13.05947 -1.33302,4.73934 -3.22115,6.09852 -6.60815,4.75692 -12.93168,-5.1223 -23.22449,-4.77022 -32.75581,1.12046 -10.44841,6.45748 -13.48498,7.35168 -13.29804,3.91598 z"
       id="path3067"
       inkscape:connector-curvature="0" />
  </g>
</svg>
